<svg width="106" height="70" viewBox="0 0 106 70" fill="none" xmlns="http://www.w3.org/2000/svg">
<path d="M22.456 14.6H24.832V23H22.456V14.6ZM19.216 23H16.84V14.6H19.216V23ZM22.624 19.724H19.048V17.756H22.624V19.724ZM26.508 23V14.6H28.884V23H26.508ZM34.7744 23.168C34.1104 23.168 33.4944 23.064 32.9264 22.856C32.3584 22.64 31.8664 22.336 31.4504 21.944C31.0424 21.552 30.7224 21.092 30.4904 20.564C30.2584 20.028 30.1424 19.44 30.1424 18.8C30.1424 18.16 30.2584 17.576 30.4904 17.048C30.7224 16.512 31.0464 16.048 31.4624 15.656C31.8784 15.264 32.3704 14.964 32.9384 14.756C33.5144 14.54 34.1424 14.432 34.8224 14.432C35.6144 14.432 36.3224 14.564 36.9464 14.828C37.5704 15.092 38.0864 15.472 38.4944 15.968L36.9824 17.336C36.6944 17.024 36.3824 16.792 36.0464 16.64C35.7184 16.48 35.3504 16.4 34.9424 16.4C34.5824 16.4 34.2544 16.456 33.9584 16.568C33.6624 16.68 33.4104 16.844 33.2024 17.06C32.9944 17.268 32.8304 17.52 32.7104 17.816C32.5984 18.104 32.5424 18.432 32.5424 18.8C32.5424 19.152 32.5984 19.476 32.7104 19.772C32.8304 20.068 32.9944 20.324 33.2024 20.54C33.4104 20.748 33.6584 20.912 33.9464 21.032C34.2424 21.144 34.5664 21.2 34.9184 21.2C35.2704 21.2 35.6144 21.144 35.9504 21.032C36.2864 20.912 36.6264 20.712 36.9704 20.432L38.3024 22.1C37.8224 22.444 37.2664 22.708 36.6344 22.892C36.0024 23.076 35.3824 23.168 34.7744 23.168ZM36.2024 21.788V18.62H38.3024V22.1L36.2024 21.788ZM45.4248 14.6H47.8008V23H45.4248V14.6ZM42.1848 23H39.8088V14.6H42.1848V23ZM45.5928 19.724H42.0168V17.756H45.5928V19.724ZM18.628 38V31.484H16.048V29.6H23.572V31.484H21.004V38H18.628ZM26.6412 32.852H30.5412V34.628H26.6412V32.852ZM26.8092 36.164H31.2012V38H24.4572V29.6H31.0452V31.436H26.8092V36.164ZM36.7077 38.168C36.0437 38.168 35.4277 38.064 34.8597 37.856C34.2997 37.64 33.8117 37.336 33.3957 36.944C32.9877 36.552 32.6677 36.092 32.4357 35.564C32.2037 35.028 32.0877 34.44 32.0877 33.8C32.0877 33.16 32.2037 32.576 32.4357 32.048C32.6677 31.512 32.9877 31.048 33.3957 30.656C33.8117 30.264 34.2997 29.964 34.8597 29.756C35.4277 29.54 36.0437 29.432 36.7077 29.432C37.4837 29.432 38.1757 29.568 38.7837 29.84C39.3997 30.112 39.9117 30.504 40.3197 31.016L38.8077 32.384C38.5357 32.064 38.2357 31.82 37.9077 31.652C37.5877 31.484 37.2277 31.4 36.8277 31.4C36.4837 31.4 36.1677 31.456 35.8797 31.568C35.5917 31.68 35.3437 31.844 35.1357 32.06C34.9357 32.268 34.7757 32.52 34.6557 32.816C34.5437 33.112 34.4877 33.44 34.4877 33.8C34.4877 34.16 34.5437 34.488 34.6557 34.784C34.7757 35.08 34.9357 35.336 35.1357 35.552C35.3437 35.76 35.5917 35.92 35.8797 36.032C36.1677 36.144 36.4837 36.2 36.8277 36.2C37.2277 36.2 37.5877 36.116 37.9077 35.948C38.2357 35.78 38.5357 35.536 38.8077 35.216L40.3197 36.584C39.9117 37.088 39.3997 37.48 38.7837 37.76C38.1757 38.032 37.4837 38.168 36.7077 38.168ZM46.9951 29.6H49.3711V38H46.9951V29.6ZM43.7551 38H41.3791V29.6H43.7551V38ZM47.1631 34.724H43.5871V32.756H47.1631V34.724ZM51.047 38V29.6H53.003L57.635 35.192H56.711V29.6H59.039V38H57.083L52.451 32.408H53.375V38H51.047ZM64.951 38.168C64.279 38.168 63.659 38.06 63.091 37.844C62.523 37.628 62.027 37.324 61.603 36.932C61.187 36.532 60.863 36.068 60.631 35.54C60.399 35.012 60.283 34.432 60.283 33.8C60.283 33.168 60.399 32.588 60.631 32.06C60.863 31.532 61.187 31.072 61.603 30.68C62.027 30.28 62.523 29.972 63.091 29.756C63.659 29.54 64.279 29.432 64.951 29.432C65.631 29.432 66.251 29.54 66.811 29.756C67.379 29.972 67.871 30.28 68.287 30.68C68.703 31.072 69.027 31.532 69.259 32.06C69.499 32.588 69.619 33.168 69.619 33.8C69.619 34.432 69.499 35.016 69.259 35.552C69.027 36.08 68.703 36.54 68.287 36.932C67.871 37.324 67.379 37.628 66.811 37.844C66.251 38.06 65.631 38.168 64.951 38.168ZM64.951 36.2C65.271 36.2 65.567 36.144 65.839 36.032C66.119 35.92 66.359 35.76 66.559 35.552C66.767 35.336 66.927 35.08 67.039 34.784C67.159 34.488 67.219 34.16 67.219 33.8C67.219 33.432 67.159 33.104 67.039 32.816C66.927 32.52 66.767 32.268 66.559 32.06C66.359 31.844 66.119 31.68 65.839 31.568C65.567 31.456 65.271 31.4 64.951 31.4C64.631 31.4 64.331 31.456 64.051 31.568C63.779 31.68 63.539 31.844 63.331 32.06C63.131 32.268 62.971 32.52 62.851 32.816C62.739 33.104 62.683 33.432 62.683 33.8C62.683 34.16 62.739 34.488 62.851 34.784C62.971 35.08 63.131 35.336 63.331 35.552C63.539 35.76 63.779 35.92 64.051 36.032C64.331 36.144 64.631 36.2 64.951 36.2ZM70.8634 38V29.6H73.2394V36.116H77.2474V38H70.8634ZM82.2948 38.168C81.6228 38.168 81.0028 38.06 80.4348 37.844C79.8668 37.628 79.3708 37.324 78.9468 36.932C78.5308 36.532 78.2068 36.068 77.9748 35.54C77.7428 35.012 77.6268 34.432 77.6268 33.8C77.6268 33.168 77.7428 32.588 77.9748 32.06C78.2068 31.532 78.5308 31.072 78.9468 30.68C79.3708 30.28 79.8668 29.972 80.4348 29.756C81.0028 29.54 81.6228 29.432 82.2948 29.432C82.9748 29.432 83.5948 29.54 84.1548 29.756C84.7228 29.972 85.2148 30.28 85.6308 30.68C86.0468 31.072 86.3708 31.532 86.6028 32.06C86.8428 32.588 86.9628 33.168 86.9628 33.8C86.9628 34.432 86.8428 35.016 86.6028 35.552C86.3708 36.08 86.0468 36.54 85.6308 36.932C85.2148 37.324 84.7228 37.628 84.1548 37.844C83.5948 38.06 82.9748 38.168 82.2948 38.168ZM82.2948 36.2C82.6148 36.2 82.9108 36.144 83.1828 36.032C83.4628 35.92 83.7028 35.76 83.9028 35.552C84.1108 35.336 84.2708 35.08 84.3828 34.784C84.5028 34.488 84.5628 34.16 84.5628 33.8C84.5628 33.432 84.5028 33.104 84.3828 32.816C84.2708 32.52 84.1108 32.268 83.9028 32.06C83.7028 31.844 83.4628 31.68 83.1828 31.568C82.9108 31.456 82.6148 31.4 82.2948 31.4C81.9748 31.4 81.6748 31.456 81.3948 31.568C81.1228 31.68 80.8828 31.844 80.6748 32.06C80.4748 32.268 80.3148 32.52 80.1948 32.816C80.0828 33.104 80.0268 33.432 80.0268 33.8C80.0268 34.16 80.0828 34.488 80.1948 34.784C80.3148 35.08 80.4748 35.336 80.6748 35.552C80.8828 35.76 81.1228 35.92 81.3948 36.032C81.6748 36.144 81.9748 36.2 82.2948 36.2ZM92.4072 38.168C91.7432 38.168 91.1272 38.064 90.5592 37.856C89.9912 37.64 89.4992 37.336 89.0832 36.944C88.6752 36.552 88.3552 36.092 88.1232 35.564C87.8912 35.028 87.7752 34.44 87.7752 33.8C87.7752 33.16 87.8912 32.576 88.1232 32.048C88.3552 31.512 88.6792 31.048 89.0952 30.656C89.5112 30.264 90.0032 29.964 90.5712 29.756C91.1472 29.54 91.7752 29.432 92.4552 29.432C93.2472 29.432 93.9552 29.564 94.5792 29.828C95.2032 30.092 95.7192 30.472 96.1272 30.968L94.6152 32.336C94.3272 32.024 94.0152 31.792 93.6792 31.64C93.3512 31.48 92.9832 31.4 92.5752 31.4C92.2152 31.4 91.8872 31.456 91.5912 31.568C91.2952 31.68 91.0432 31.844 90.8352 32.06C90.6272 32.268 90.4632 32.52 90.3432 32.816C90.2312 33.104 90.1752 33.432 90.1752 33.8C90.1752 34.152 90.2312 34.476 90.3432 34.772C90.4632 35.068 90.6272 35.324 90.8352 35.54C91.0432 35.748 91.2912 35.912 91.5792 36.032C91.8752 36.144 92.1992 36.2 92.5512 36.2C92.9032 36.2 93.2472 36.144 93.5832 36.032C93.9192 35.912 94.2592 35.712 94.6032 35.432L95.9352 37.1C95.4552 37.444 94.8992 37.708 94.2672 37.892C93.6352 38.076 93.0152 38.168 92.4072 38.168ZM93.8352 36.788V33.62H95.9352V37.1L93.8352 36.788ZM99.5656 38V34.448L100.118 35.876L96.3616 29.6H98.8696L101.582 34.148H100.13L102.854 29.6H105.158L101.414 35.876L101.942 34.448V38H99.5656ZM16.84 53V44.6H20.68C21.448 44.6 22.108 44.724 22.66 44.972C23.22 45.22 23.652 45.58 23.956 46.052C24.26 46.516 24.412 47.068 24.412 47.708C24.412 48.34 24.26 48.888 23.956 49.352C23.652 49.816 23.22 50.176 22.66 50.432C22.108 50.68 21.448 50.804 20.68 50.804H18.16L19.216 49.772V53H16.84ZM19.216 50.024L18.16 48.932H20.536C21.032 48.932 21.4 48.824 21.64 48.608C21.888 48.392 22.012 48.092 22.012 47.708C22.012 47.316 21.888 47.012 21.64 46.796C21.4 46.58 21.032 46.472 20.536 46.472H18.16L19.216 45.38V50.024ZM24.1406 53L27.8486 44.6H30.1886L33.9086 53H31.4366L28.5326 45.764H29.4686L26.5646 53H24.1406ZM26.1686 51.368L26.7806 49.616H30.8846L31.4966 51.368H26.1686ZM34.5822 53V44.6H38.4222C39.1902 44.6 39.8502 44.724 40.4022 44.972C40.9622 45.22 41.3942 45.58 41.6982 46.052C42.0022 46.516 42.1542 47.068 42.1542 47.708C42.1542 48.34 42.0022 48.888 41.6982 49.352C41.3942 49.808 40.9622 50.16 40.4022 50.408C39.8502 50.648 39.1902 50.768 38.4222 50.768H35.9022L36.9582 49.772V53H34.5822ZM39.7782 53L37.6902 49.94H40.2222L42.3222 53H39.7782ZM36.9582 50.024L35.9022 48.932H38.2782C38.7742 48.932 39.1422 48.824 39.3822 48.608C39.6302 48.392 39.7542 48.092 39.7542 47.708C39.7542 47.316 39.6302 47.012 39.3822 46.796C39.1422 46.58 38.7742 46.472 38.2782 46.472H35.9022L36.9582 45.38V50.024ZM45.589 51.14L45.457 48.476L49.069 44.6H51.685L48.085 48.5L46.765 49.88L45.589 51.14ZM43.465 53V44.6H45.817V53H43.465ZM49.105 53L46.369 49.532L47.917 47.876L51.865 53H49.105Z" fill="white"/>
<rect width="6" height="69" fill="#00CFBC"/>
<rect width="6" height="69" fill="#00CFBC"/>
<rect width="6" height="69" fill="#00CFBC"/>
<rect x="6" y="6" width="6" height="58" transform="rotate(-90 6 6)" fill="#00CFBC"/>
<rect x="6" y="6" width="6" height="58" transform="rotate(-90 6 6)" fill="#00CFBC"/>
<rect x="6" y="6" width="6" height="58" transform="rotate(-90 6 6)" fill="#00CFBC"/>
<rect x="6" y="69" width="6" height="8" transform="rotate(-90 6 69)" fill="#00CFBC"/>
<rect x="6" y="69" width="6" height="8" transform="rotate(-90 6 69)" fill="#00CFBC"/>
<rect x="6" y="69" width="6" height="8" transform="rotate(-90 6 69)" fill="#00CFBC"/>
<path d="M18.504 68.04C18.0987 68.04 17.7333 67.9493 17.408 67.768C17.088 67.5813 16.8347 67.328 16.648 67.008C16.4613 66.6827 16.368 66.312 16.368 65.896C16.368 65.4747 16.4613 65.104 16.648 64.784C16.8347 64.464 17.088 64.2133 17.408 64.032C17.728 63.8507 18.0933 63.76 18.504 63.76C18.92 63.76 19.288 63.8507 19.608 64.032C19.9333 64.2133 20.1867 64.464 20.368 64.784C20.5547 65.104 20.648 65.4747 20.648 65.896C20.648 66.312 20.5547 66.6827 20.368 67.008C20.1867 67.328 19.9333 67.5813 19.608 67.768C19.2827 67.9493 18.9147 68.04 18.504 68.04ZM18.504 67.536C18.808 67.536 19.0773 67.4693 19.312 67.336C19.5467 67.1973 19.7307 67.0053 19.864 66.76C20.0027 66.5093 20.072 66.2213 20.072 65.896C20.072 65.5653 20.0027 65.2773 19.864 65.032C19.7307 64.7867 19.5467 64.5973 19.312 64.464C19.0773 64.3253 18.8107 64.256 18.512 64.256C18.2133 64.256 17.9467 64.3253 17.712 64.464C17.4773 64.5973 17.2907 64.7867 17.152 65.032C17.0133 65.2773 16.944 65.5653 16.944 65.896C16.944 66.2213 17.0133 66.5093 17.152 66.76C17.2907 67.0053 17.4773 67.1973 17.712 67.336C17.9467 67.4693 18.2107 67.536 18.504 67.536ZM21.9036 68V63.272C21.9036 62.8987 22.013 62.5973 22.2316 62.368C22.4503 62.1387 22.765 62.024 23.1756 62.024C23.3356 62.024 23.4903 62.0453 23.6396 62.088C23.789 62.1307 23.9143 62.1973 24.0156 62.288L23.8236 62.712C23.7436 62.6427 23.6503 62.592 23.5436 62.56C23.437 62.5227 23.3223 62.504 23.1996 62.504C22.9596 62.504 22.7756 62.5707 22.6476 62.704C22.5196 62.8373 22.4556 63.0347 22.4556 63.296V63.936L22.4716 64.2V68H21.9036ZM21.1516 64.272V63.8H23.7516V64.272H21.1516ZM27.9403 68.04C27.5456 68.04 27.2416 67.9333 27.0283 67.72C26.815 67.5067 26.7083 67.2053 26.7083 66.816V62.872H27.2763V66.784C27.2763 67.0293 27.3376 67.2187 27.4603 67.352C27.5883 67.4853 27.7696 67.552 28.0043 67.552C28.255 67.552 28.463 67.48 28.6283 67.336L28.8283 67.744C28.7163 67.8453 28.5803 67.92 28.4203 67.968C28.2656 68.016 28.1056 68.04 27.9403 68.04ZM25.9563 64.272V63.8H28.5563V64.272H25.9563ZM32.0063 63.76C32.3476 63.76 32.6463 63.8267 32.9023 63.96C33.1636 64.088 33.3663 64.2853 33.5103 64.552C33.6596 64.8187 33.7343 65.1547 33.7343 65.56V68H33.1663V65.616C33.1663 65.1733 33.0543 64.84 32.8303 64.616C32.6116 64.3867 32.3023 64.272 31.9023 64.272C31.6036 64.272 31.3423 64.3333 31.1183 64.456C30.8996 64.5733 30.729 64.7467 30.6063 64.976C30.489 65.2 30.4303 65.472 30.4303 65.792V68H29.8623V62.064H30.4303V64.952L30.3183 64.736C30.4516 64.432 30.665 64.1947 30.9583 64.024C31.2516 63.848 31.601 63.76 32.0063 63.76ZM37.0526 68.04C36.6152 68.04 36.2312 67.9493 35.9006 67.768C35.5699 67.5813 35.3112 67.328 35.1246 67.008C34.9379 66.6827 34.8446 66.312 34.8446 65.896C34.8446 65.48 34.9326 65.112 35.1086 64.792C35.2899 64.472 35.5352 64.2213 35.8446 64.04C36.1592 63.8533 36.5112 63.76 36.9006 63.76C37.2952 63.76 37.6446 63.8507 37.9486 64.032C38.2579 64.208 38.5006 64.4587 38.6766 64.784C38.8526 65.104 38.9406 65.4747 38.9406 65.896C38.9406 65.9227 38.9379 65.952 38.9326 65.984C38.9326 66.0107 38.9326 66.04 38.9326 66.072H35.2766V65.648H38.6286L38.4046 65.816C38.4046 65.512 38.3379 65.2427 38.2046 65.008C38.0766 64.768 37.9006 64.5813 37.6766 64.448C37.4526 64.3147 37.1939 64.248 36.9006 64.248C36.6126 64.248 36.3539 64.3147 36.1246 64.448C35.8952 64.5813 35.7166 64.768 35.5886 65.008C35.4606 65.248 35.3966 65.5227 35.3966 65.832V65.92C35.3966 66.24 35.4659 66.5227 35.6046 66.768C35.7486 67.008 35.9459 67.1973 36.1966 67.336C36.4526 67.4693 36.7432 67.536 37.0686 67.536C37.3246 67.536 37.5619 67.4907 37.7806 67.4C38.0046 67.3093 38.1966 67.1707 38.3566 66.984L38.6766 67.352C38.4899 67.576 38.2552 67.7467 37.9726 67.864C37.6952 67.9813 37.3886 68.04 37.0526 68.04ZM42.8224 66.608L42.7984 65.888L46.1904 62.4H46.8704L44.3984 64.992L44.0624 65.352L42.8224 66.608ZM42.3104 68V62.4H42.9024V68H42.3104ZM46.3344 68L43.9184 65.216L44.3184 64.784L47.0384 68H46.3344ZM47.6209 69.592C47.4235 69.592 47.2342 69.56 47.0529 69.496C46.8769 69.432 46.7249 69.336 46.5969 69.208L46.8609 68.784C46.9675 68.8853 47.0822 68.9627 47.2049 69.016C47.3329 69.0747 47.4742 69.104 47.6289 69.104C47.8155 69.104 47.9755 69.0507 48.1089 68.944C48.2475 68.8427 48.3782 68.6613 48.5009 68.4L48.7729 67.784L48.8369 67.696L50.5649 63.8H51.1249L49.0209 68.504C48.9035 68.776 48.7729 68.992 48.6289 69.152C48.4902 69.312 48.3382 69.424 48.1729 69.488C48.0075 69.5573 47.8235 69.592 47.6209 69.592ZM48.7409 68.12L46.8049 63.8H47.3969L49.1089 67.656L48.7409 68.12ZM51.9248 68V63.8H52.4688V64.944L52.4128 64.744C52.5301 64.424 52.7275 64.1813 53.0048 64.016C53.2821 63.8453 53.6261 63.76 54.0368 63.76V64.312C54.0155 64.312 53.9941 64.312 53.9728 64.312C53.9515 64.3067 53.9301 64.304 53.9088 64.304C53.4661 64.304 53.1195 64.44 52.8688 64.712C52.6181 64.9787 52.4928 65.36 52.4928 65.856V68H51.9248ZM56.8262 69.592C56.4422 69.592 56.0742 69.536 55.7222 69.424C55.3702 69.312 55.0849 69.152 54.8662 68.944L55.1542 68.512C55.3515 68.688 55.5942 68.8267 55.8822 68.928C56.1755 69.0347 56.4849 69.088 56.8102 69.088C57.3435 69.088 57.7355 68.9627 57.9862 68.712C58.2369 68.4667 58.3622 68.0827 58.3622 67.56V66.512L58.4422 65.792L58.3862 65.072V63.8H58.9302V67.488C58.9302 68.2133 58.7515 68.744 58.3942 69.08C58.0422 69.4213 57.5195 69.592 56.8262 69.592ZM56.7222 67.84C56.3222 67.84 55.9622 67.7547 55.6422 67.584C55.3222 67.408 55.0689 67.1653 54.8822 66.856C54.7009 66.5467 54.6102 66.192 54.6102 65.792C54.6102 65.392 54.7009 65.04 54.8822 64.736C55.0689 64.4267 55.3222 64.1867 55.6422 64.016C55.9622 63.8453 56.3222 63.76 56.7222 63.76C57.0955 63.76 57.4315 63.8373 57.7302 63.992C58.0289 64.1467 58.2662 64.376 58.4422 64.68C58.6182 64.984 58.7062 65.3547 58.7062 65.792C58.7062 66.2293 58.6182 66.6 58.4422 66.904C58.2662 67.208 58.0289 67.44 57.7302 67.6C57.4315 67.76 57.0955 67.84 56.7222 67.84ZM56.7782 67.336C57.0875 67.336 57.3622 67.272 57.6022 67.144C57.8422 67.0107 58.0315 66.8293 58.1702 66.6C58.3089 66.3653 58.3782 66.096 58.3782 65.792C58.3782 65.488 58.3089 65.2213 58.1702 64.992C58.0315 64.7627 57.8422 64.584 57.6022 64.456C57.3622 64.3227 57.0875 64.256 56.7782 64.256C56.4742 64.256 56.1995 64.3227 55.9542 64.456C55.7142 64.584 55.5249 64.7627 55.3862 64.992C55.2529 65.2213 55.1862 65.488 55.1862 65.792C55.1862 66.096 55.2529 66.3653 55.3862 66.6C55.5249 66.8293 55.7142 67.0107 55.9542 67.144C56.1995 67.272 56.4742 67.336 56.7782 67.336ZM60.5428 69.592C60.3454 69.592 60.1561 69.56 59.9748 69.496C59.7988 69.432 59.6467 69.336 59.5187 69.208L59.7828 68.784C59.8894 68.8853 60.0041 68.9627 60.1268 69.016C60.2548 69.0747 60.3961 69.104 60.5508 69.104C60.7374 69.104 60.8974 69.0507 61.0308 68.944C61.1694 68.8427 61.3001 68.6613 61.4228 68.4L61.6948 67.784L61.7588 67.696L63.4868 63.8H64.0468L61.9428 68.504C61.8254 68.776 61.6948 68.992 61.5508 69.152C61.4121 69.312 61.2601 69.424 61.0948 69.488C60.9294 69.5573 60.7454 69.592 60.5428 69.592ZM61.6628 68.12L59.7268 63.8H60.3188L62.0308 67.656L61.6628 68.12ZM64.3126 68V67.624L67.1126 64.08L67.2326 64.272H64.3606V63.8H67.6806V64.168L64.8886 67.72L64.7446 67.528H67.7366V68H64.3126ZM71.0683 68V62.4H73.1643C73.6389 62.4 74.0469 62.4773 74.3883 62.632C74.7296 62.7813 74.9909 63 75.1723 63.288C75.3589 63.5707 75.4523 63.9147 75.4523 64.32C75.4523 64.7147 75.3589 65.056 75.1723 65.344C74.9909 65.6267 74.7296 65.8453 74.3883 66C74.0469 66.1493 73.6389 66.224 73.1643 66.224H71.3963L71.6603 65.952V68H71.0683ZM74.8923 68L73.4523 65.968H74.0923L75.5403 68H74.8923ZM71.6603 66L71.3963 65.72H73.1483C73.7083 65.72 74.1323 65.5973 74.4203 65.352C74.7136 65.1067 74.8602 64.7627 74.8602 64.32C74.8602 63.872 74.7136 63.5253 74.4203 63.28C74.1323 63.0347 73.7083 62.912 73.1483 62.912H71.3963L71.6603 62.632V66ZM78.5135 68.04C78.0762 68.04 77.6922 67.9493 77.3615 67.768C77.0308 67.5813 76.7722 67.328 76.5855 67.008C76.3988 66.6827 76.3055 66.312 76.3055 65.896C76.3055 65.48 76.3935 65.112 76.5695 64.792C76.7508 64.472 76.9962 64.2213 77.3055 64.04C77.6202 63.8533 77.9722 63.76 78.3615 63.76C78.7562 63.76 79.1055 63.8507 79.4095 64.032C79.7188 64.208 79.9615 64.4587 80.1375 64.784C80.3135 65.104 80.4015 65.4747 80.4015 65.896C80.4015 65.9227 80.3988 65.952 80.3935 65.984C80.3935 66.0107 80.3935 66.04 80.3935 66.072H76.7375V65.648H80.0895L79.8655 65.816C79.8655 65.512 79.7988 65.2427 79.6655 65.008C79.5375 64.768 79.3615 64.5813 79.1375 64.448C78.9135 64.3147 78.6548 64.248 78.3615 64.248C78.0735 64.248 77.8148 64.3147 77.5855 64.448C77.3562 64.5813 77.1775 64.768 77.0495 65.008C76.9215 65.248 76.8575 65.5227 76.8575 65.832V65.92C76.8575 66.24 76.9268 66.5227 77.0655 66.768C77.2095 67.008 77.4068 67.1973 77.6575 67.336C77.9135 67.4693 78.2042 67.536 78.5295 67.536C78.7855 67.536 79.0228 67.4907 79.2415 67.4C79.4655 67.3093 79.6575 67.1707 79.8175 66.984L80.1375 67.352C79.9508 67.576 79.7162 67.7467 79.4335 67.864C79.1562 67.9813 78.8495 68.04 78.5135 68.04ZM83.7256 68.04C83.363 68.04 83.035 67.9573 82.7416 67.792C82.4483 67.6213 82.2136 67.3787 82.0376 67.064C81.867 66.744 81.7816 66.3547 81.7816 65.896C81.7816 65.4373 81.867 65.0507 82.0376 64.736C82.2083 64.416 82.4403 64.1733 82.7336 64.008C83.027 63.8427 83.3576 63.76 83.7256 63.76C84.1256 63.76 84.483 63.8507 84.7976 64.032C85.1176 64.208 85.3683 64.4587 85.5496 64.784C85.731 65.104 85.8216 65.4747 85.8216 65.896C85.8216 66.3227 85.731 66.696 85.5496 67.016C85.3683 67.336 85.1176 67.5867 84.7976 67.768C84.483 67.9493 84.1256 68.04 83.7256 68.04ZM81.5576 69.552V63.8H82.1016V65.064L82.0456 65.904L82.1256 66.752V69.552H81.5576ZM83.6856 67.536C83.9843 67.536 84.251 67.4693 84.4856 67.336C84.7203 67.1973 84.907 67.0053 85.0456 66.76C85.1843 66.5093 85.2536 66.2213 85.2536 65.896C85.2536 65.5707 85.1843 65.2853 85.0456 65.04C84.907 64.7947 84.7203 64.6027 84.4856 64.464C84.251 64.3253 83.9843 64.256 83.6856 64.256C83.387 64.256 83.1176 64.3253 82.8776 64.464C82.643 64.6027 82.4563 64.7947 82.3176 65.04C82.1843 65.2853 82.1176 65.5707 82.1176 65.896C82.1176 66.2213 82.1843 66.5093 82.3176 66.76C82.4563 67.0053 82.643 67.1973 82.8776 67.336C83.1176 67.4693 83.387 67.536 83.6856 67.536ZM88.7155 68.04C88.3582 68.04 88.0462 67.9733 87.7795 67.84C87.5128 67.7067 87.3048 67.5067 87.1555 67.24C87.0115 66.9733 86.9395 66.64 86.9395 66.24V63.8H87.5075V66.176C87.5075 66.624 87.6168 66.9627 87.8355 67.192C88.0595 67.416 88.3715 67.528 88.7715 67.528C89.0648 67.528 89.3182 67.4693 89.5315 67.352C89.7502 67.2293 89.9155 67.0533 90.0275 66.824C90.1448 66.5947 90.2035 66.32 90.2035 66V63.8H90.7715V68H90.2275V66.848L90.3155 67.056C90.1822 67.3653 89.9742 67.608 89.6915 67.784C89.4142 67.9547 89.0888 68.04 88.7155 68.04ZM94.5225 68.04C94.1545 68.04 93.8238 67.9573 93.5305 67.792C93.2372 67.6213 93.0052 67.376 92.8345 67.056C92.6638 66.736 92.5785 66.3493 92.5785 65.896C92.5785 65.4373 92.6638 65.0507 92.8345 64.736C93.0105 64.416 93.2452 64.1733 93.5385 64.008C93.8318 63.8427 94.1598 63.76 94.5225 63.76C94.9225 63.76 95.2798 63.8507 95.5945 64.032C95.9145 64.208 96.1652 64.456 96.3465 64.776C96.5278 65.096 96.6185 65.4693 96.6185 65.896C96.6185 66.3173 96.5278 66.6907 96.3465 67.016C96.1652 67.336 95.9145 67.5867 95.5945 67.768C95.2798 67.9493 94.9225 68.04 94.5225 68.04ZM92.3545 68V62.064H92.9225V65.04L92.8425 65.888L92.8985 66.736V68H92.3545ZM94.4825 67.536C94.7812 67.536 95.0478 67.4693 95.2825 67.336C95.5172 67.1973 95.7038 67.0053 95.8425 66.76C95.9812 66.5093 96.0505 66.2213 96.0505 65.896C96.0505 65.5653 95.9812 65.2773 95.8425 65.032C95.7038 64.7867 95.5172 64.5973 95.2825 64.464C95.0478 64.3253 94.7812 64.256 94.4825 64.256C94.1838 64.256 93.9145 64.3253 93.6745 64.464C93.4398 64.5973 93.2532 64.7867 93.1145 65.032C92.9812 65.2773 92.9145 65.5653 92.9145 65.896C92.9145 66.2213 92.9812 66.5093 93.1145 66.76C93.2532 67.0053 93.4398 67.1973 93.6745 67.336C93.9145 67.4693 94.1838 67.536 94.4825 67.536ZM97.7764 68V62.064H98.3444V68H97.7764ZM99.9248 68V63.8H100.493V68H99.9248ZM100.213 62.872C100.095 62.872 99.9968 62.832 99.9168 62.752C99.8368 62.672 99.7968 62.576 99.7968 62.464C99.7968 62.352 99.8368 62.2587 99.9168 62.184C99.9968 62.104 100.095 62.064 100.213 62.064C100.33 62.064 100.429 62.1013 100.509 62.176C100.589 62.2507 100.629 62.344 100.629 62.456C100.629 62.5733 100.589 62.672 100.509 62.752C100.434 62.832 100.335 62.872 100.213 62.872ZM103.817 68.04C103.401 68.04 103.028 67.9493 102.697 67.768C102.372 67.5813 102.116 67.328 101.929 67.008C101.743 66.6827 101.649 66.312 101.649 65.896C101.649 65.4747 101.743 65.104 101.929 64.784C102.116 64.464 102.372 64.2133 102.697 64.032C103.028 63.8507 103.401 63.76 103.817 63.76C104.175 63.76 104.497 63.8293 104.785 63.968C105.073 64.1067 105.3 64.3147 105.465 64.592L105.041 64.88C104.897 64.6667 104.719 64.5093 104.505 64.408C104.292 64.3067 104.06 64.256 103.809 64.256C103.511 64.256 103.241 64.3253 103.001 64.464C102.761 64.5973 102.572 64.7867 102.433 65.032C102.295 65.2773 102.225 65.5653 102.225 65.896C102.225 66.2267 102.295 66.5147 102.433 66.76C102.572 67.0053 102.761 67.1973 103.001 67.336C103.241 67.4693 103.511 67.536 103.809 67.536C104.06 67.536 104.292 67.4853 104.505 67.384C104.719 67.2827 104.897 67.128 105.041 66.92L105.465 67.208C105.3 67.48 105.073 67.688 104.785 67.832C104.497 67.9707 104.175 68.04 103.817 68.04Z" fill="white"/>
</svg>
