<svg width="900" height="900" viewBox="0 0 900 900" fill="none" xmlns="http://www.w3.org/2000/svg">
<path d="M900 450C900 698.528 698.528 900 450 900C201.472 900 0 698.528 0 450C0 201.472 201.472 0 450 0C698.528 0 900 201.472 900 450Z" fill="white"/>
<path d="M626.93 217.246L626.929 217.245C624.525 215.67 617.732 212.684 601.239 215.66C584.618 218.658 562.608 227.102 536.486 242.516C484.476 273.209 424.235 326.754 370.036 396.606C315.84 466.455 280.372 536.256 265.735 591.482C258.386 619.216 256.862 641.133 259.201 656.608L260.684 656.384C262.966 671.464 268.123 676.018 270.105 677.316L269.283 678.57C269.283 678.57 269.283 678.57 269.283 678.57C271.689 680.147 278.48 683.131 294.973 680.156C311.594 677.158 333.605 668.714 359.724 653.299C411.737 622.607 471.975 569.063 526.176 499.209C580.372 429.36 615.84 359.559 630.477 304.333C637.826 276.6 639.35 254.682 637.009 239.206C634.683 223.821 629.354 218.835 626.93 217.246ZM652.589 184.563L653.178 183.664L652.589 184.563C668.038 194.687 677.28 211.578 680.627 233.705C683.976 255.852 681.396 283.139 673.272 313.793C657.026 375.091 618.703 449.51 562.098 522.463C505.494 595.414 441.412 652.976 383.612 687.085C354.709 704.141 327.437 715.298 303.499 719.615C279.557 723.934 259.094 721.391 243.621 711.252C228.173 701.128 218.931 684.238 215.584 662.111C212.235 639.964 214.816 612.676 222.94 582.023C239.185 520.725 277.508 446.305 334.114 373.351C390.717 300.401 454.798 242.84 512.598 208.731C541.501 191.675 568.774 180.518 592.711 176.2C616.653 171.881 637.116 174.424 652.589 184.563Z" fill="url(#paint0_linear_146_20)" stroke="white" stroke-width="3"/>
<path d="M156.335 356.908L156.335 356.908C155.351 359.576 154.229 366.513 162.111 380.219L162.111 380.219C170.046 394.017 185.21 410.964 208.798 429.506C255.774 466.429 328.921 503.998 417.303 531.55C505.688 559.105 588.602 570.185 650.307 567.149C681.294 565.625 704.52 560.653 719.917 554.155C735.193 547.709 738.858 541.615 739.834 538.97C740.819 536.304 741.94 529.365 734.056 515.659C726.121 501.863 710.96 484.914 687.371 466.372C640.396 429.449 567.249 391.88 478.864 364.328C390.479 336.773 307.566 325.693 245.86 328.729C214.873 330.254 191.649 335.225 176.252 341.723C160.977 348.169 157.312 354.263 156.335 356.908ZM114.61 344.062C120.686 327.601 135.616 314.567 157.791 305.209C179.955 295.855 209.183 290.254 243.493 288.566C312.104 285.19 400.732 297.472 493.08 326.26C585.43 355.05 663.887 394.856 716.086 435.885C742.191 456.404 761.657 477.174 773.036 496.959C784.412 516.738 787.626 535.377 781.558 551.816C775.481 568.277 760.551 581.311 738.377 590.669C716.212 600.023 686.985 605.623 652.675 607.311C584.064 610.688 495.437 598.406 403.088 569.618C310.738 540.828 232.28 501.023 180.081 459.993C153.977 439.474 134.51 418.704 123.131 398.919C111.756 379.14 108.542 360.501 114.61 344.062Z" fill="url(#paint1_linear_146_20)" stroke="white" stroke-width="3"/>
<mask id="mask0_146_20" style="mask-type:alpha" maskUnits="userSpaceOnUse" x="325" y="261" width="140" height="128">
<path d="M462.701 324.679C462.701 358.814 432.551 386.695 395.086 386.695C357.621 386.695 327.471 358.814 327.471 324.679C327.471 290.546 357.621 262.663 395.086 262.663C432.551 262.663 462.701 290.546 462.701 324.679Z" fill="#D9D9D9" stroke="white" stroke-width="3"/>
</mask>
<g mask="url(#mask0_146_20)">
<path d="M626.939 217.246L626.938 217.245C624.534 215.67 617.741 212.684 601.247 215.66C584.625 218.658 562.616 227.102 536.495 242.516C484.484 273.209 424.244 326.754 370.045 396.606C315.849 466.455 280.381 536.256 265.744 591.482C258.395 619.216 256.871 641.133 259.21 656.608L260.693 656.384C262.974 671.464 268.132 676.018 270.114 677.316L269.291 678.57C269.292 678.57 269.292 678.57 269.292 678.57C271.697 680.147 278.489 683.131 294.982 680.156C311.603 677.158 333.614 668.714 359.733 653.299C411.745 622.607 471.984 569.063 526.182 499.209C580.381 429.36 615.849 359.559 630.484 304.333C637.835 276.6 639.359 254.682 637.018 239.206C634.692 223.821 629.362 218.835 626.939 217.246ZM652.597 184.563C668.046 194.687 677.288 211.577 680.634 233.705C683.984 255.852 681.403 283.139 673.28 313.793C657.034 375.091 618.712 449.51 562.107 522.463C505.503 595.414 441.421 652.976 383.621 687.085C354.718 704.141 327.445 715.298 303.508 719.615C279.566 723.934 259.103 721.391 243.63 711.252C228.181 701.128 218.94 684.238 215.593 662.111C212.244 639.964 214.824 612.676 222.948 582.023C239.194 520.725 277.517 446.305 334.123 373.351C390.726 300.401 454.807 242.84 512.607 208.731C541.51 191.675 568.782 180.518 592.72 176.2C616.662 171.881 637.125 174.424 652.597 184.563Z" fill="url(#paint2_linear_146_20)" stroke="white" stroke-width="3"/>
</g>
<defs>
<linearGradient id="paint0_linear_146_20" x1="323.494" y1="365.54" x2="570.578" y2="574.564" gradientUnits="userSpaceOnUse">
<stop stop-color="#02027C"/>
<stop offset="1" stop-color="#0871F1"/>
</linearGradient>
<linearGradient id="paint1_linear_146_20" x1="398.18" y1="581.338" x2="502.071" y2="288.512" gradientUnits="userSpaceOnUse">
<stop stop-color="#02027C"/>
<stop offset="1" stop-color="#0871F1"/>
</linearGradient>
<linearGradient id="paint2_linear_146_20" x1="323.502" y1="365.54" x2="570.587" y2="574.564" gradientUnits="userSpaceOnUse">
<stop stop-color="#02027C"/>
<stop offset="1" stop-color="#0871F1"/>
</linearGradient>
</defs>
</svg>
