<svg width="1590" height="523" viewBox="0 0 1590 523" fill="none" xmlns="http://www.w3.org/2000/svg">
<g style="mix-blend-mode:lighten">
<path d="M9.84817 246.629C107.256 245.357 179.391 266.04 248.431 279.995C302.009 290.827 373.683 305.589 451.755 298.351C496.35 294.217 524.969 284.224 554.75 274.467C576.276 267.418 599.931 260.797 624.802 254.637C672.895 242.732 726.132 232.857 780.346 223.528C836.325 213.9 893.122 204.692 947.179 194.101C1007.89 182.203 1060.6 166.79 1131.77 160.854C1201.05 155.074 1270.71 157.315 1338.08 158.515C1422.52 160.022 1503.33 159.096 1587.35 148.941L1587.36 148.5C1503.53 158.709 1423.08 159.608 1338.88 157.954C1271.96 156.637 1202.78 154.221 1133.8 159.895C1063.03 165.712 1010.54 181.14 949.312 192.576C895.054 202.711 837.837 211.169 781.3 220.046C726.781 228.608 673.082 237.744 624.854 249.215C599.857 255.156 576.189 261.639 554.868 268.592C525.032 278.326 496.673 288.372 451.841 292.353C372.946 299.352 301.364 283.591 248.595 272.387C180.295 257.89 108.422 236.214 10.1692 237.229L9.85875 246.628L9.84817 246.629ZM9.11874 268.702C104.531 266.83 177.259 285.221 248.077 297.85C303.597 307.753 375.434 320.206 451.59 312.416C523.667 305.045 570.622 281.996 624.675 267.361C672.596 254.384 724.771 242.785 778.109 231.68C832.736 220.313 888.394 209.367 942.167 197.652C1001.65 184.693 1054.8 169.311 1127 163.071C1197.01 157.024 1267.75 158.866 1336.22 159.785C1421.24 160.933 1502.84 159.942 1587.31 149.928L1587.33 149.529C1503.04 159.604 1421.76 160.572 1336.97 159.271C1268.96 158.234 1198.64 156.234 1128.94 162.17C1057.19 168.278 1004.2 183.681 944.212 196.204C890.353 207.446 834.215 217.682 779.024 228.355C725.3 238.741 672.689 249.64 624.727 262.168C600.033 268.619 576.395 275.441 554.584 282.634C524.891 292.424 495.901 302.325 451.646 306.679C374.702 314.248 302.951 300.859 248.217 290.572C178.128 277.395 105.625 258.077 9.41264 259.708L9.11874 268.702ZM10.572 224.613C109.967 223.962 181.48 246.96 248.789 262.174C300.525 273.863 371.951 290.964 451.931 284.291C497.093 280.524 525.101 270.385 555.015 260.686C576.07 253.854 599.756 247.564 624.906 241.909C673.399 231.007 727.681 222.885 782.559 215.344C839.764 207.48 897.542 200.031 952.142 190.485C1014.05 179.664 1066.24 164.208 1136.5 158.556C1205.08 153.036 1273.62 155.684 1339.93 157.155C1423.8 159.013 1503.79 158.148 1587.38 147.857L1587.39 147.305C1503.99 157.656 1424.36 158.495 1340.74 156.474C1274.91 154.884 1206.85 152.059 1138.58 157.461C1068.68 163.004 1016.77 178.476 954.337 188.815C899.408 197.909 841.231 204.592 783.536 211.657C728.448 218.401 673.732 225.733 624.967 236.221C599.699 241.649 576.002 247.807 555.141 254.538C525.16 264.215 497.425 274.428 452.004 278.037C371.19 284.443 299.882 266.307 248.935 254.254C182.399 238.509 111.143 214.47 10.8816 214.85L10.5615 224.614L10.572 224.613ZM7.66663 312.687C97.4773 309.74 170.296 323.255 243.095 332.909C301.589 340.666 371.685 348.968 443.583 341.39C521.482 333.184 573.608 308.927 627.132 291.99C674.466 277.009 723.381 262.4 773.585 248.128C828.396 232.56 884.716 217.399 941.782 202.456C998.221 187.675 1050.99 173.351 1125.02 167.092C1195.65 161.129 1267.26 162.265 1336.88 162.626C1421.51 163.063 1503.43 161.766 1587.24 152.187L1587.26 151.697C1502.84 161.407 1420.56 162.598 1335.4 162.028C1265.67 161.558 1193.82 160.325 1123.04 166.484C1049.16 172.917 996.056 187.787 938.9 202.32C881.556 216.897 824.355 231.525 768.678 246.6C717.519 260.449 667.749 274.689 620.119 289.46C568.899 305.344 520.69 327.74 447.456 335.76C374.613 343.738 303.648 334.782 245.359 326.588C172.443 316.338 99.3072 301.806 7.95552 304.579L7.68653 312.671L7.66663 312.687ZM6.94942 334.424C94.1284 331.039 167.001 342.325 240.643 350.452C300.44 357.052 369.757 363.473 439.683 355.906C518.429 347.386 570.822 323.85 622.747 306.215C669.995 290.168 717.32 274.135 765.884 258.373C818.376 241.334 872.391 224.625 928.862 208.55C983.141 193.107 1035.8 178.097 1109.08 170.888C1184.58 163.457 1262.25 164.365 1337.3 164.456C1421.69 164.567 1503.69 163.136 1587.18 153.782L1587.2 153.173C1503.09 162.654 1420.71 164 1335.75 163.768C1265.46 163.578 1193.18 162.691 1122.08 168.824C1047.4 175.274 994.266 189.574 938.558 204.903C881.311 220.657 825.977 236.935 772.202 253.581C722.733 268.895 674.581 284.515 627.062 300.273C574.375 317.741 521.656 341.801 443.453 350.55C372.663 358.467 302.538 351.486 242.841 344.458C168.998 335.764 95.8081 323.565 7.18825 326.823L6.93822 334.418L6.94942 334.424ZM11.2873 202.736C112.637 202.703 183.519 228.032 249.131 244.418C299.147 256.904 370.262 276.327 452.098 270.246C497.816 266.855 525.242 256.53 555.278 246.876C575.893 240.251 599.617 234.272 625.016 229.118C674.211 219.135 729.433 212.796 784.727 207.023C842.98 200.947 901.607 195.227 957.043 186.666C1020.16 176.921 1071.65 161.437 1141.16 156.014C1209 150.721 1276.57 153.806 1341.74 155.54C1425.06 157.756 1504.26 156.941 1587.42 146.515L1587.44 145.76C1504.46 156.254 1425.62 157.049 1342.56 154.671C1277.87 152.817 1210.81 149.545 1143.28 154.719C1074.06 160.026 1022.89 175.543 959.263 184.798C903.351 192.929 844.363 197.844 785.705 203.1C730.306 208.066 674.678 213.577 625.051 223.153C599.556 228.072 575.831 233.919 555.4 240.457C525.309 250.088 498.136 260.501 452.179 263.726C369.486 269.536 298.552 249.044 249.282 236.204C184.423 219.304 113.858 192.886 11.6097 192.645L11.2761 202.73L11.2873 202.736ZM8.38744 290.754C100.942 288.311 173.731 304.2 245.568 315.357C302.637 324.219 373.566 334.538 447.548 326.889C520.622 319.344 568.112 296.783 620.164 281.367C667.635 267.315 718.125 254.077 769.978 241.287C826.629 227.309 884.776 213.823 942.043 200.048C999.936 186.117 1052.77 171.23 1125.98 164.984C1196.29 158.986 1267.47 160.467 1336.53 161.11C1421.37 161.897 1503.13 160.746 1587.27 150.949L1587.29 150.529C1502.54 160.465 1420.44 161.494 1335.07 160.558C1265.95 159.797 1194.52 158.205 1124.08 164.417C1051.2 170.843 997.823 186.225 939.11 199.811C885.401 212.24 830.489 224.233 776.746 236.643C724.006 248.823 672.544 261.459 624.59 275.122C571.478 290.258 523.744 313.189 451.473 321.004C376.455 329.109 304.616 318.05 247.849 308.749C175.935 296.971 102.872 279.95 8.66605 282.18L8.38618 290.741L8.38744 290.754ZM12.0014 181.083C114.298 181.62 184.042 208.865 247.362 226.198C295.806 239.461 365.205 261.026 448.405 256.454C494.35 253.927 522.533 243.827 551.942 234.195C571.862 227.675 595.228 221.854 620.618 217.077C669.909 207.796 725.36 203.048 780.339 198.984C843.34 194.325 906.806 190.217 966.93 181.837C1030.39 172.987 1080.23 157.73 1149.22 152.857C1215.98 148.136 1281.8 151.645 1345.52 153.608C1427.59 156.125 1505.46 155.25 1587.47 144.767L1587.51 143.732C1505.69 154.28 1428.15 155.153 1346.33 152.467C1283.09 150.391 1217.79 146.689 1151.34 151.291C1082.6 156.052 1033.11 171.375 969.204 179.741C908.413 187.7 844.589 190.928 781.263 194.695C726.329 197.967 670.449 201.869 620.645 210.784C595.16 215.347 571.827 221.047 552.103 227.5C522.683 237.126 494.681 247.342 448.495 249.682C364.467 253.946 295.325 231.332 247.542 217.716C184.957 199.891 115.55 171.542 12.3542 170.738L12.0126 181.089L12.0014 181.083ZM1079.99 231.129C899.632 251.79 826.335 307.951 755.43 352.954C682.165 399.454 610.267 451.165 438.044 478.068C298.803 499.819 147.475 497.669 1.34101 504.335L1.24646 507.175C147.471 500.688 298.795 502.198 438.008 480.498C610.92 453.539 682.293 402.155 755.431 355.436C826.11 310.293 898.898 254.165 1079.74 233.418C1244.86 214.473 1418.08 223.795 1585.36 209.313L1585.43 207.068C1418.22 221.655 1245.08 212.215 1080.01 231.128L1079.99 231.129ZM1082.41 244.34C900.538 264.845 829.22 319.062 759.799 364.551C719.627 390.884 680.998 417.878 625.547 442.632C580.503 462.747 521.339 478.312 447.61 490.17C306.05 512.927 151.014 514.236 0.832484 519.903L0.759396 522.274C151.003 516.817 305.98 514.977 447.583 492.335C521.243 480.552 580.576 465.201 625.667 445.124C681.286 420.355 719.793 393.295 759.864 366.916C829.137 321.322 900.115 267.24 1082.29 246.673C1246.6 228.122 1418.53 236.605 1584.91 222.86L1584.99 220.531C1418.62 234.387 1246.73 225.809 1082.41 244.34ZM13.4062 138.811C117.365 140.264 184.845 171.124 243.943 190.025C290.377 204.879 355.795 230.055 441.212 228.649C485.273 227.925 517.304 218.738 544.573 209.272C566.837 201.543 592.058 195.016 623.489 190.389C674.498 182.891 730.513 181.648 783.963 180.714C846.635 179.613 910.227 179.126 972.312 172.723C1036.54 166.098 1084.7 150.743 1150.74 145.871C1219.86 140.769 1287.4 145.51 1352.58 148.023C1432.38 151.102 1507.85 150.026 1587.67 139.429C1587.69 138.715 1587.7 138.331 1587.73 137.519C1508.07 148.2 1432.91 149.29 1353.32 146.046C1288.65 143.409 1221.67 138.464 1152.84 143.442C1086.9 148.214 1039.15 163.659 974.492 169.827C911.53 175.842 847.591 175.454 784.822 175.72C731.617 175.941 675.203 176.314 623.491 183.471C591.846 187.853 566.832 194.305 544.779 202.015C517.599 211.522 485.545 220.802 441.318 221.353C355.124 222.424 290.076 196.26 244.132 181.047C207.756 169.005 172.934 156.465 132.209 145.521C99.2913 136.679 63.6083 128.876 13.7667 128.082L13.4055 138.804L13.4062 138.811ZM242.283 172.178C288.261 187.889 360.163 218.355 452.409 214.378C498.426 212.403 524.755 201.746 553.304 192.275C574.366 185.289 601.003 179.667 630.626 176.172C683.278 169.962 739.434 170.637 792.079 171.053C854.395 171.56 918.403 172.479 981.53 166.512C1045.46 160.464 1092.22 145.138 1158.03 140.768C1226.15 136.238 1291.96 141.387 1355.82 144.083C1434.59 147.408 1509 146.198 1587.79 135.534L1587.87 133.023C1509.23 143.779 1435.08 145.014 1356.49 141.526C1293.12 138.716 1227.85 133.364 1160.01 137.772C1094.26 142.045 1047.87 157.485 983.624 163.135C919.581 168.76 855.197 166.99 792.906 165.706C740.5 164.628 683.99 163.106 630.58 168.959C600.871 172.217 574.353 177.732 553.481 184.7C525.021 194.205 498.803 205.033 452.519 206.886C411.602 208.532 376.306 202.053 348.818 195.69C308.126 186.291 275.101 174.509 242.474 162.998C206.642 150.362 172.26 137.267 131.699 125.771C99.5672 116.663 64.4427 108.432 14.4306 107.521L14.0775 118.333C63.7212 119.18 98.9998 127.111 131.401 136.021C171.898 147.153 206.364 159.892 242.281 172.157L242.283 172.178ZM6.23887 355.882C159.646 349.086 294.624 390.074 450.457 368.624C526.446 358.164 579.22 334.95 629.534 316.721C676.606 299.665 722.353 282.36 769.349 265.29C820.052 246.879 872.249 228.71 928.749 211.538C981.72 195.432 1034.35 180.955 1108.36 173.763C1184.19 166.393 1262.21 166.948 1337.8 166.768C1421.92 166.568 1503.93 165.011 1587.1 155.887L1587.13 155.125C1504.09 164.299 1422.31 165.842 1338.32 165.947C1263.08 166.039 1185.41 165.355 1109.83 172.633C1036.15 179.732 983.625 194.214 930.301 210.065C873.913 226.83 821.198 244.46 770.013 262.377C722.642 278.958 676.521 295.789 629.563 312.451C578.886 330.434 526.334 353.754 450.527 363.98C293.539 385.158 160.571 342.231 6.47183 348.804L6.2395 355.889L6.23887 355.882ZM12.7121 159.744C115.875 160.774 184.496 189.871 245.63 208.043C292.898 222.097 360.381 245.579 444.779 242.585C490.774 240.947 519.937 231.079 548.782 221.456C571.124 214.005 597.796 207.591 627.945 202.829C678.578 194.829 734.407 192.124 788.685 189.741C851.909 186.959 915.758 184.482 976.675 176.728C1040.23 168.651 1088.43 153.57 1156.98 149.231C1222.67 145.067 1286.8 148.98 1349.14 151.152C1430.04 153.964 1506.68 152.991 1587.55 142.459L1587.6 141.038C1506.89 151.654 1430.59 152.617 1349.92 149.638C1288.05 147.361 1224.45 143.254 1159.06 147.292C1090.71 151.516 1042.84 166.692 978.932 174.327C917.244 181.698 853.006 183.296 789.618 185.208C735.464 186.84 679.235 188.668 627.949 196.288C597.68 200.782 571.082 207.071 548.959 214.474C520.127 224.116 491.101 234.09 444.856 235.55C359.661 238.232 292.489 213.704 245.799 199.312C185.38 180.677 117.106 150.468 13.0566 149.19L12.7133 159.758L12.7121 159.744ZM130.441 98.1326C170.596 110.202 204.212 123.911 239.069 137.207C271.331 149.511 303.691 162.071 343.425 172.561C369.882 179.555 403.903 187.265 445.36 186.867C524.224 186.125 550.69 157.675 621.571 149.945C679.219 143.658 740.614 147.645 794.698 150.405C855.661 153.518 919.7 157.376 985.067 152.935C1053.69 148.276 1101.49 131.391 1171.28 127.762C1237.51 124.317 1300.12 130.167 1361.65 133.165C1438.65 136.916 1511.25 135.368 1588.15 124.539L1588.28 120.434C1506.44 132.094 1430.42 132.864 1349.33 128.396C1289.76 125.116 1228.01 119.634 1163.31 123.82C1094.98 128.244 1047.93 145.095 978.176 148.693C912.352 152.087 849.166 147.287 788.682 143.58C735.813 140.34 674.402 135.825 617.222 142.327C547.373 150.264 522.292 179.293 441.856 178.922C400.325 178.734 366.902 170.565 340.784 163.317C301.536 152.428 269.463 139.611 237.369 127.034C202.952 113.545 169.682 99.6581 129.737 87.4301C99.2162 78.0851 65.4003 69.3456 15.7068 68.4189L15.3506 79.1966C65.2184 80.1632 99.4419 88.81 130.43 98.1266L130.441 98.1326ZM1351.98 120.137C1293.39 116.732 1233.05 110.928 1169.14 114.616C1100.94 118.547 1054.7 135.64 986.014 139.14C919.379 142.539 855.711 136.778 796.068 132.109C743.816 128.026 682.632 121.9 623.847 127.16C549.963 133.775 530.883 162.392 452.75 164.846C412.088 166.127 378.109 158.525 352.72 151.79C313.145 141.292 281.693 128.51 250.714 115.992C216.114 102.01 183.244 87.5925 144.868 74.4274C112.095 63.1877 74.3504 51.004 16.3453 50.0499L15.9984 60.6943C65.9247 61.5998 99.6499 70.5149 129.988 79.9532C169.973 92.3938 203.188 106.501 237.539 120.206C269.599 132.995 301.629 146.039 340.897 157.15C366.864 164.502 400.231 172.871 441.958 173.111C522.939 173.6 546.763 144.127 617.117 136.347C674.768 129.976 736.532 135.094 789.06 138.693C849.497 142.829 912.902 148.161 979.374 144.965C1049.31 141.602 1096.09 124.608 1164.5 120.246C1229.04 116.131 1290.45 121.748 1349.74 125.103C1430.76 129.681 1506.62 128.87 1588.41 117.125C1588.48 115.187 1588.52 114.165 1588.59 112.011C1507.6 123.796 1432.35 124.795 1352.01 120.135L1351.98 120.137ZM1.78821 491.032C148.732 483.651 301.175 488.915 441.548 466.482C611.487 439.325 685.278 385.198 759.969 339.363C833.002 294.544 910.293 239.374 1092.29 220.266C1254.51 203.23 1422.2 212.39 1585.74 197.647L1585.81 195.528C1422.36 210.388 1254.82 201.095 1092.67 218.077C911.332 237.069 833.387 292.201 760.047 336.811C685.17 382.362 610.689 436.755 441.581 463.78C301.091 486.231 148.747 480.177 1.89051 487.689L1.77763 491.033L1.78821 491.032ZM250.819 109.735C281.771 122.429 313.165 135.398 352.777 146.067C378.033 152.869 411.995 160.633 452.817 159.352C531.547 156.893 549.224 127.859 623.683 121.352C682.861 116.189 744.336 122.818 796.316 127.192C855.873 132.21 919.774 138.417 986.941 135.131C1055.72 131.768 1101.77 114.518 1170.06 110.642C1233.86 107.013 1293.91 112.934 1352.26 116.395C1432.58 121.163 1507.73 120.102 1588.68 108.237C1588.77 105.859 1588.8 104.607 1588.89 101.97C1508.69 113.878 1434.07 115.156 1354.35 110.328C1296.61 106.832 1237.58 100.741 1174.39 103.96C1106.15 107.442 1060.8 124.725 993.284 128.384C921.213 132.29 852.785 124.617 789.969 118.842C739.351 114.185 677.713 107.166 619.268 112.771C546.294 119.778 529.921 149.552 449.326 151.085C408.427 151.864 374.968 143.643 350.12 136.643C310.988 125.617 279.863 112.443 249.072 99.5243C214.953 85.206 182.462 70.489 144.251 57.0368C112.222 45.7646 74.9216 33.3035 16.9167 32.5865L16.5721 43.0215C74.8261 43.8972 112.504 56.2961 145.05 67.6121C183.454 80.9631 216.276 95.5665 250.829 109.734L250.819 109.735ZM5.54798 376.968C155.449 369.626 291.755 403.722 442.932 383.622C519.627 373.426 572.33 351.424 621.175 332.869C671.731 313.67 718.854 293.882 767.363 274.332C815.739 254.843 865.462 235.496 921.075 217.366C975.839 199.515 1031.69 184.292 1111.57 176.875C1187.28 169.844 1264.98 170.114 1340.51 169.681C1423.59 169.199 1504.91 167.467 1587.01 158.65L1587.04 157.706C1504.34 166.648 1422.55 168.31 1338.87 168.7C1263.13 169.054 1185.07 168.719 1109.17 175.956C1029.07 183.594 973.258 199.393 917.989 217.213C862.265 235.179 811.858 254.267 762.724 273.512C716.999 291.422 672.347 309.521 625.299 327.188C575.952 345.727 523.109 368.299 446.628 378.74C293.73 399.624 157.076 363.209 5.75329 370.409L5.53678 376.962L5.54798 376.968ZM144.421 50.7945C182.655 64.3909 215.108 79.2649 249.175 93.7273C279.937 106.788 311.012 120.113 350.188 131.274C374.922 138.32 408.373 146.674 449.398 145.876C530.639 144.292 545.693 114.086 619.083 107.091C677.712 101.511 739.812 108.92 790.067 113.805C852.634 119.889 921.522 127.931 993.959 124.07C1061.52 120.468 1106.66 103.03 1175.06 99.5895C1238.16 96.4215 1296.98 102.608 1354.51 106.157C1434.28 111.079 1508.84 109.73 1589.03 97.7321L1589.28 90.1437C1509.77 102.199 1435.72 103.78 1356.41 98.8235C1299.38 95.2565 1241.55 88.9314 1179.02 91.7068C1110.34 94.7609 1066.35 112.172 999.905 116.237C927.656 120.653 858.242 112.338 796.713 105.93C746.447 100.69 685.09 92.5299 625.524 97.0726C545.662 103.156 532.412 136.67 445.981 137.365C404.935 137.705 371.982 128.95 347.594 121.726C308.893 110.271 278.069 96.7697 247.461 83.5208C213.821 68.9569 181.703 54.0038 143.645 40.3565C112.312 29.1187 75.3901 16.47 17.4501 16.1167C17.3404 19.4946 17.23 22.8657 17.1097 26.2445C75.328 26.8445 112.58 39.4773 144.421 50.7945ZM143.804 34.694C181.882 48.4441 213.968 63.5186 247.565 78.198C278.14 91.5544 308.922 105.178 347.654 116.735C371.949 123.995 404.91 132.84 446.049 132.471C533.239 131.672 545.037 97.6826 625.301 91.5493C685.024 86.9853 746.668 95.4751 796.701 100.855C858.087 107.45 927.786 116.081 1000.34 111.616C1066.84 107.519 1110.54 89.9588 1179.46 86.932C1241.92 84.191 1299.58 90.6086 1356.47 94.2088C1435.85 99.2291 1509.91 97.5694 1589.44 85.4225L1589.74 76.3585C1510.16 88.6702 1436.07 90.4858 1356.5 85.3505C1299.81 81.6836 1242.45 75.1345 1180.08 77.8185C1110.61 80.8043 1067.53 98.6417 1000.92 102.861C927.891 107.474 857.688 98.3446 796.555 91.4752C746.941 85.8974 684.781 76.8895 624.865 81.5616C543.924 87.8749 534.796 122.731 446.198 123.755C404.898 124.229 371.901 115.234 347.774 107.945C308.973 96.2133 278.272 82.4217 247.744 68.8866C214.207 54.0346 182.22 38.7697 144.075 24.8584C113.208 13.5784 76.3198 0.605833 17.9532 0.723529L17.6299 10.4523C75.7372 10.651 112.64 23.4339 143.793 34.688L143.804 34.694ZM1361.21 136.008C1299.36 133.094 1236.35 127.385 1169.91 130.927C1100.12 134.639 1052.07 151.386 983.615 156.33C918.962 160.999 855.203 157.757 794.169 155.167C739.775 152.86 678.72 149.568 621.667 156.058C551.501 164.037 523.634 192.085 445.284 192.969C404.068 193.435 369.984 185.968 343.346 179.102C303.646 168.874 271.213 156.564 238.921 144.514C204.002 131.482 170.313 118.024 130.202 106.201C99.0118 97.0075 64.7007 88.5708 15.0899 87.6158L14.7282 98.4498C64.5082 99.3895 99.235 107.705 130.911 116.847C171.229 128.484 205.263 141.743 240.653 154.551C273.121 166.314 305.847 178.332 346.031 188.133C373.081 194.724 407.782 201.696 448.847 200.63C494.936 199.443 522.642 188.905 550.371 179.334C570.838 172.263 596.239 166.543 626.082 163.224C679.112 157.307 735.426 159.251 786.926 160.809C848.598 162.679 912.169 165.367 976.568 160.721C1045.96 155.713 1094.92 138.917 1164.87 134.779C1232.03 130.803 1296.19 136.317 1358.83 139.18C1436.68 142.728 1510.11 141.363 1587.94 130.618C1587.98 129.401 1587.99 128.752 1588.04 127.374C1511.04 138.127 1438.28 139.633 1361.2 136.002L1361.21 136.008ZM4.86986 397.607C152.196 389.856 291.677 418.038 439.177 398.096C515.899 387.724 569.263 366.653 617.16 347.764C668.115 327.665 713.779 306.727 760.559 285.987C807.164 265.327 854.722 244.691 909.548 225.405C962.027 206.938 1016.9 190.917 1096.31 182.561C1170.88 174.706 1248.47 174.156 1323.6 173.509C1412.2 172.742 1499.18 171.424 1586.92 162.222L1586.97 161.074C1499.34 170.329 1412.53 171.631 1324.04 172.311C1249.18 172.893 1171.85 173.341 1097.47 181.124C1018.36 189.405 963.522 205.422 910.726 223.687C855.975 242.625 807.986 262.854 761.025 283.128C713.9 303.48 667.903 324.037 617.143 343.819C569.031 362.566 515.979 383.784 439.231 393.984C290.921 413.699 152.866 383.952 5.07118 391.592L4.87049 397.614L4.86986 397.607ZM4.20631 417.701C152.506 409.513 299.388 433.328 445.959 411.016C520.376 399.688 573.482 379.303 619.888 360.208C670.438 339.406 714.252 317.596 759.087 295.995C841.104 256.49 935.094 203.864 1099.96 187.243C1260.92 171.026 1424.7 183.337 1586.76 166.755L1586.8 165.398C1424.96 182.086 1261.7 169.539 1100.95 185.648C937.646 202.015 842.228 254.185 759.473 293.184C714.33 314.458 670.209 335.94 619.858 356.466C573.303 375.449 520.413 395.982 446.018 407.19C298.805 429.364 152.901 404.108 4.39243 412.224L4.20569 417.694L4.20631 417.701ZM3.57222 437.178C149.054 428.974 295.795 447.104 438.82 425.916C517.957 414.188 574.791 393.276 622.59 372.835C672.69 351.418 714.783 328.865 757.846 306.539C835.8 266.106 923.658 212.557 1089.15 194.499C1252.57 176.664 1421.56 188.851 1586.59 172.412L1586.64 170.845C1425.15 187.054 1261.65 175.639 1101.1 191.575C932.701 208.293 842.689 260.795 762.912 301.352C719.088 323.636 676.511 346.149 626.491 367.621C578.452 388.238 521.838 409.813 442.323 421.847C298.056 443.692 150.459 424 3.74377 432.246L3.5828 437.177L3.57222 437.178ZM2.3598 473.924C150.123 465.939 303.269 475.427 445.14 452.336C605.733 426.208 682.045 372.835 756.055 329.496C831.16 285.521 911.634 229.344 1090.81 210.275C1253.55 192.961 1421.93 203.05 1586.07 187.694L1586.14 185.736C1422.12 201.192 1254 190.954 1091.33 208.199C913.051 227.096 831.702 283.143 756.209 326.839C681.912 369.841 604.85 423.415 445.189 449.34C303.103 472.416 150.191 461.979 2.4885 470.049L2.35792 473.903L2.3598 473.924ZM2.94886 455.95C151.736 447.607 305.009 461.791 448.778 438.102C605.61 412.259 685.148 357.297 761.4 315.149C836.748 273.502 920.111 220.019 1089.77 201.744C1252.92 184.17 1421.71 195.267 1586.35 179.35L1586.41 177.58C1421.94 193.607 1253.47 182.314 1090.46 199.82C921.852 217.923 837.516 271.152 761.648 312.477C685.018 354.212 604.582 409.277 448.845 434.846C304.753 458.502 151.88 443.194 3.10646 451.571L2.96006 455.956L2.94886 455.95Z" fill="url(#paint0_linear_15_302)" fill-opacity="0.4"/>
</g>
<defs>
<linearGradient id="paint0_linear_15_302" x1="1151.59" y1="-35.2844" x2="682.046" y2="625.211" gradientUnits="userSpaceOnUse">
<stop stop-color="#1B5CBC" stop-opacity="0.69"/>
<stop offset="0.0001" stop-color="#0E479B"/>
<stop offset="1" stop-color="#44249C"/>
</linearGradient>
</defs>
</svg>
