<svg viewBox="0 0 12 15" fill="none" xmlns="http://www.w3.org/2000/svg">
<path d="M6.80566 1C6.80566 0.585786 6.46988 0.25 6.05566 0.25C5.64145 0.25 5.30566 0.585786 5.30566 1H6.80566ZM5.52533 11.6414C5.81823 11.9343 6.2931 11.9343 6.58599 11.6414L11.359 6.86847C11.6519 6.57558 11.6519 6.1007 11.359 5.80781C11.0661 5.51492 10.5912 5.51492 10.2983 5.80781L6.05566 10.0505L1.81302 5.80781C1.52013 5.51492 1.04526 5.51492 0.752363 5.80781C0.45947 6.1007 0.45947 6.57558 0.752363 6.86847L5.52533 11.6414ZM5.30566 1L5.30566 11.1111H6.80566L6.80566 1H5.30566Z" fill="#3378C9"/>
<path d="M1 14H11.1111" stroke="#3378C9" stroke-width="1.5" stroke-linecap="square"/>
</svg>
