<svg width="649" height="595" viewBox="0 0 649 595" fill="none" xmlns="http://www.w3.org/2000/svg">
<path fill-rule="evenodd" clip-rule="evenodd" d="M409.551 38.196C440.139 60.0065 420.735 139.672 366.213 216.135C311.69 292.598 242.695 336.902 212.108 315.091C181.521 293.281 200.924 213.615 255.447 137.152C309.969 60.6898 378.964 16.3855 409.551 38.196ZM396.422 56.6092C397.374 57.2887 399.855 59.6711 400.951 67.5609C402.057 75.516 401.345 86.8693 397.826 101.319C390.819 130.088 373.818 166.517 347.8 203.005C321.781 239.494 292.881 267.437 267.965 283.436C255.451 291.472 244.949 295.845 237.068 297.392C229.251 298.926 226.191 297.358 225.238 296.678C224.285 295.999 221.805 293.616 220.708 285.726C219.603 277.771 220.315 266.418 223.834 251.968C230.841 223.199 247.842 186.77 273.86 150.282C299.878 113.794 328.779 85.8504 353.694 69.8512C366.209 61.8152 376.711 57.4426 384.592 55.8956C392.408 54.3613 395.469 55.9298 396.422 56.6092Z" fill="url(#paint0_linear_103_18)"/>
<path fill-rule="evenodd" clip-rule="evenodd" d="M149.791 122.036C161.859 86.4605 243.737 82.0764 332.67 112.244C421.603 142.412 483.915 195.708 471.847 231.284C459.779 266.859 377.902 271.243 288.968 241.076C200.035 210.908 137.723 157.612 149.791 122.036ZM171.208 129.301C171.584 128.193 173.15 125.131 180.389 121.807C187.688 118.455 198.764 115.864 213.615 115.069C243.183 113.486 282.966 119.264 325.405 133.661C367.845 148.057 402.933 167.676 425.435 186.922C436.737 196.589 443.951 205.385 447.704 212.485C451.427 219.528 450.807 222.911 450.431 224.019C450.055 225.127 448.489 228.189 441.25 231.513C433.951 234.865 422.874 237.456 408.023 238.251C378.455 239.834 338.672 234.056 296.233 219.659C253.794 205.263 218.706 185.644 196.204 166.398C184.902 156.731 177.687 147.936 173.934 140.835C170.212 133.792 170.832 130.41 171.208 129.301Z" fill="url(#paint1_linear_103_18)"/>
<mask id="mask0_103_18" style="mask-type:alpha" maskUnits="userSpaceOnUse" x="252" y="78" width="67" height="68">
<path d="M285.335 145.4C303.69 145.4 318.569 130.521 318.569 112.166C318.569 93.8115 303.69 78.9321 285.335 78.9321C266.98 78.9321 252.101 93.8115 252.101 112.166C252.101 130.521 266.98 145.4 285.335 145.4Z" fill="#D9D9D9"/>
</mask>
<g mask="url(#mask0_103_18)">
<path fill-rule="evenodd" clip-rule="evenodd" d="M409.555 38.196C440.142 60.0065 420.739 139.672 366.217 216.135C311.694 292.598 242.699 336.902 212.112 315.091C181.525 293.281 200.928 213.615 255.451 137.152C309.973 60.6898 378.968 16.3855 409.555 38.196ZM396.426 56.6092C397.378 57.2887 399.859 59.6711 400.955 67.5609C402.061 75.516 401.349 86.8693 397.829 101.319C390.823 130.088 373.822 166.517 347.803 203.005C321.785 239.494 292.885 267.437 267.969 283.436C255.455 291.472 244.953 295.845 237.072 297.392C229.255 298.926 226.195 297.358 225.242 296.678C224.289 295.999 221.809 293.616 220.712 285.726C219.607 277.771 220.319 266.418 223.838 251.968C230.845 223.199 247.846 186.77 273.864 150.282C299.882 113.794 328.783 85.8504 353.698 69.8512C366.213 61.8152 376.714 57.4426 384.596 55.8956C392.412 54.3613 395.473 55.9298 396.426 56.6092Z" fill="url(#paint2_linear_103_18)"/>
</g>
<path d="M13.252 396.368H34.88V502.338H13.252V396.368ZM94.2721 415.216H55.1519V396.368H154.884V415.216H115.764V502.338H94.2721V415.216ZM177.868 396.368H272.652V415.216H199.361V442.946H261.6V460.641H199.361V502.338H177.868V396.368ZM293.398 396.368H383.639V415.216H314.891V436.369H375.774V454.065H314.891V483.558H385.063V502.338H293.398V396.368ZM413.878 470.811C417.719 472.981 421.607 474.947 425.539 476.71C429.517 478.427 433.63 479.896 437.878 481.117C442.127 482.292 446.579 483.196 451.235 483.829C455.936 484.461 460.93 484.778 466.219 484.778C472.592 484.778 478.016 484.371 482.49 483.558C486.965 482.699 490.604 481.546 493.406 480.1C496.254 478.608 498.31 476.845 499.576 474.811C500.887 472.777 501.542 470.563 501.542 468.167C501.542 464.325 499.937 461.297 496.728 459.082C493.519 456.822 488.57 455.692 481.88 455.692C478.942 455.692 475.846 455.895 472.592 456.302C469.337 456.664 466.038 457.071 462.693 457.523C459.393 457.975 456.116 458.404 452.862 458.811C449.653 459.172 446.625 459.353 443.777 459.353C439.031 459.353 434.466 458.743 430.082 457.523C425.742 456.302 421.878 454.472 418.488 452.031C415.143 449.59 412.476 446.539 410.488 442.878C408.499 439.217 407.504 434.945 407.504 430.064C407.504 427.171 407.889 424.301 408.657 421.453C409.471 418.606 410.736 415.894 412.454 413.318C414.217 410.696 416.476 408.278 419.234 406.063C421.991 403.803 425.313 401.859 429.2 400.232C433.132 398.605 437.652 397.339 442.76 396.436C447.913 395.486 453.766 395.012 460.32 395.012C465.066 395.012 469.834 395.283 474.626 395.825C479.417 396.323 484.072 397.046 488.592 397.995C493.157 398.944 497.542 400.097 501.745 401.453C505.949 402.763 509.859 404.232 513.475 405.86L504.05 423.216C501.067 421.905 497.858 420.708 494.423 419.623C490.988 418.493 487.394 417.521 483.643 416.707C479.891 415.894 476.004 415.261 471.981 414.809C468.004 414.312 463.936 414.063 459.778 414.063C453.856 414.063 448.975 414.493 445.133 415.351C441.336 416.21 438.308 417.318 436.048 418.674C433.788 419.984 432.206 421.476 431.302 423.148C430.443 424.776 430.014 426.403 430.014 428.03C430.014 431.194 431.438 433.793 434.285 435.827C437.133 437.816 441.472 438.81 447.303 438.81C449.653 438.81 452.342 438.652 455.371 438.335C458.444 437.974 461.653 437.59 464.998 437.183C468.388 436.776 471.823 436.414 475.304 436.098C478.829 435.736 482.242 435.556 485.541 435.556C491.779 435.556 497.293 436.256 502.084 437.657C506.921 439.059 510.966 441.07 514.22 443.692C517.475 446.268 519.938 449.409 521.61 453.116C523.283 456.777 524.119 460.89 524.119 465.455C524.119 471.557 522.695 477.004 519.848 481.795C517.045 486.541 513.023 490.563 507.779 493.863C502.581 497.117 496.299 499.603 488.931 501.321C481.564 502.993 473.36 503.829 464.32 503.829C458.354 503.829 452.523 503.445 446.828 502.677C441.133 501.954 435.664 500.914 430.421 499.558C425.223 498.157 420.251 496.507 415.505 494.609C410.804 492.665 406.442 490.541 402.419 488.236L413.878 470.811ZM579.714 415.216H540.594V396.368H640.327V415.216H601.207V502.338H579.714V415.216Z" fill="white"/>
<mask id="mask1_103_18" style="mask-type:luminance" maskUnits="userSpaceOnUse" x="9" y="391" width="636" height="117">
<path d="M644.586 391.338H9.58594V507.338H644.586V391.338Z" fill="white"/>
<path d="M13.252 396.368H34.88V502.338H13.252V396.368ZM94.2721 415.216H55.1519V396.368H154.884V415.216H115.764V502.338H94.2721V415.216ZM177.868 396.368H272.652V415.216H199.361V442.946H261.6V460.641H199.361V502.338H177.868V396.368ZM293.398 396.368H383.639V415.216H314.891V436.369H375.774V454.065H314.891V483.558H385.063V502.338H293.398V396.368ZM413.878 470.811C417.719 472.981 421.607 474.947 425.539 476.71C429.517 478.427 433.63 479.896 437.878 481.117C442.127 482.292 446.579 483.196 451.235 483.829C455.936 484.461 460.93 484.778 466.219 484.778C472.592 484.778 478.016 484.371 482.49 483.558C486.965 482.699 490.604 481.546 493.406 480.1C496.254 478.608 498.31 476.845 499.576 474.811C500.887 472.777 501.542 470.563 501.542 468.167C501.542 464.325 499.937 461.297 496.728 459.082C493.519 456.822 488.57 455.692 481.88 455.692C478.942 455.692 475.846 455.895 472.592 456.302C469.337 456.664 466.038 457.071 462.693 457.523C459.393 457.975 456.116 458.404 452.862 458.811C449.653 459.172 446.625 459.353 443.777 459.353C439.031 459.353 434.466 458.743 430.082 457.523C425.742 456.302 421.878 454.472 418.488 452.031C415.143 449.59 412.476 446.539 410.488 442.878C408.499 439.217 407.504 434.945 407.504 430.064C407.504 427.171 407.889 424.301 408.657 421.453C409.471 418.606 410.736 415.894 412.454 413.318C414.217 410.696 416.476 408.278 419.234 406.063C421.991 403.803 425.313 401.859 429.2 400.232C433.132 398.605 437.652 397.339 442.76 396.436C447.913 395.486 453.766 395.012 460.32 395.012C465.066 395.012 469.834 395.283 474.626 395.825C479.417 396.323 484.072 397.046 488.592 397.995C493.157 398.944 497.542 400.097 501.745 401.453C505.949 402.763 509.859 404.232 513.475 405.86L504.05 423.216C501.067 421.905 497.858 420.708 494.423 419.623C490.988 418.493 487.394 417.521 483.643 416.707C479.891 415.894 476.004 415.261 471.981 414.809C468.004 414.312 463.936 414.063 459.778 414.063C453.856 414.063 448.975 414.493 445.133 415.351C441.336 416.21 438.308 417.318 436.048 418.674C433.788 419.984 432.206 421.476 431.302 423.148C430.443 424.776 430.014 426.403 430.014 428.03C430.014 431.194 431.438 433.793 434.285 435.827C437.133 437.816 441.472 438.81 447.303 438.81C449.653 438.81 452.342 438.652 455.371 438.335C458.444 437.974 461.653 437.59 464.998 437.183C468.388 436.776 471.823 436.414 475.304 436.098C478.829 435.736 482.242 435.556 485.541 435.556C491.779 435.556 497.293 436.256 502.084 437.657C506.921 439.059 510.966 441.07 514.22 443.692C517.475 446.268 519.938 449.409 521.61 453.116C523.283 456.777 524.119 460.89 524.119 465.455C524.119 471.557 522.695 477.004 519.848 481.795C517.045 486.541 513.023 490.563 507.779 493.863C502.581 497.117 496.299 499.603 488.931 501.321C481.564 502.993 473.36 503.829 464.32 503.829C458.354 503.829 452.523 503.445 446.828 502.677C441.133 501.954 435.664 500.914 430.421 499.558C425.223 498.157 420.251 496.507 415.505 494.609C410.804 492.665 406.442 490.541 402.419 488.236L413.878 470.811ZM579.714 415.216H540.594V396.368H640.327V415.216H601.207V502.338H579.714V415.216Z" fill="white"/>
</mask>
<g mask="url(#mask1_103_18)">
<path d="M13.2519 396.368V393.093H9.97729V396.368H13.2519ZM34.8799 396.368H38.1544V393.093H34.8799V396.368ZM34.8799 502.338V505.612H38.1544V502.338H34.8799ZM13.2519 502.338H9.97729V505.612H13.2519V502.338ZM13.2519 399.642H34.8799V393.093H13.2519V399.642ZM31.6053 396.368V502.338H38.1544V396.368H31.6053ZM34.8799 499.063H13.2519V505.612H34.8799V499.063ZM16.5265 502.338V396.368H9.97729V502.338H16.5265ZM94.272 415.216H97.5466V411.941H94.272V415.216ZM55.1518 415.216H51.8772V418.49H55.1518V415.216ZM55.1518 396.368V393.093H51.8772V396.368H55.1518ZM154.884 396.368H158.159V393.093H154.884V396.368ZM154.884 415.216V418.49H158.159V415.216H154.884ZM115.764 415.216V411.941H112.49V415.216H115.764ZM115.764 502.338V505.612H119.039V502.338H115.764ZM94.272 502.338H90.9974V505.612H94.272V502.338ZM94.272 411.941H55.1518V418.49H94.272V411.941ZM58.4264 415.216V396.368H51.8772V415.216H58.4264ZM55.1518 399.642H154.884V393.093H55.1518V399.642ZM151.61 396.368V415.216H158.159V396.368H151.61ZM154.884 411.941H115.764V418.49H154.884V411.941ZM112.49 415.216V502.338H119.039V415.216H112.49ZM115.764 499.063H94.272V505.612H115.764V499.063ZM97.5466 502.338V415.216H90.9974V502.338H97.5466ZM177.868 396.368V393.093H174.594V396.368H177.868ZM272.652 396.368H275.926V393.093H272.652V396.368ZM272.652 415.216V418.49H275.926V415.216H272.652ZM199.361 415.216V411.941H196.086V415.216H199.361ZM199.361 442.946H196.086V446.22H199.361V442.946ZM261.6 442.946H264.875V439.671H261.6V442.946ZM261.6 460.641V463.916H264.875V460.641H261.6ZM199.361 460.641V457.367H196.086V460.641H199.361ZM199.361 502.338V505.612H202.635V502.338H199.361ZM177.868 502.338H174.594V505.612H177.868V502.338ZM177.868 399.642H272.652V393.093H177.868V399.642ZM269.377 396.368V415.216H275.926V396.368H269.377ZM272.652 411.941H199.361V418.49H272.652V411.941ZM196.086 415.216V442.946H202.635V415.216H196.086ZM199.361 446.22H261.6V439.671H199.361V446.22ZM258.326 442.946V460.641H264.875V442.946H258.326ZM261.6 457.367H199.361V463.916H261.6V457.367ZM196.086 460.641V502.338H202.635V460.641H196.086ZM199.361 499.063H177.868V505.612H199.361V499.063ZM181.143 502.338V396.368H174.594V502.338H181.143ZM293.398 396.368V393.093H290.124V396.368H293.398ZM383.639 396.368H386.914V393.093H383.639V396.368ZM383.639 415.216V418.49H386.914V415.216H383.639ZM314.891 415.216V411.941H311.616V415.216H314.891ZM314.891 436.369H311.616V439.644H314.891V436.369ZM375.774 436.369H379.049V433.095H375.774V436.369ZM375.774 454.065V457.339H379.049V454.065H375.774ZM314.891 454.065V450.79H311.616V454.065H314.891ZM314.891 483.558H311.616V486.832H314.891V483.558ZM385.063 483.558H388.337V480.283H385.063V483.558ZM385.063 502.338V505.612H388.337V502.338H385.063ZM293.398 502.338H290.124V505.612H293.398V502.338ZM293.398 399.642H383.639V393.093H293.398V399.642ZM380.364 396.368V415.216H386.914V396.368H380.364ZM383.639 411.941H314.891V418.49H383.639V411.941ZM311.616 415.216V436.369H318.165V415.216H311.616ZM314.891 439.644H375.774V433.095H314.891V439.644ZM372.5 436.369V454.065H379.049V436.369H372.5ZM375.774 450.79H314.891V457.339H375.774V450.79ZM311.616 454.065V483.558H318.165V454.065H311.616ZM314.891 486.832H385.063V480.283H314.891V486.832ZM381.788 483.558V502.338H388.337V483.558H381.788ZM385.063 499.063H293.398V505.612H385.063V499.063ZM296.673 502.338V396.368H290.124V502.338H296.673ZM413.878 470.811L415.488 467.96L412.823 466.455L411.141 469.012L413.878 470.811ZM425.539 476.71L424.199 479.698L424.22 479.707L424.241 479.716L425.539 476.71ZM437.878 481.117L436.974 484.264L436.99 484.269L437.005 484.273L437.878 481.117ZM451.235 483.829L450.794 487.073L450.798 487.074L451.235 483.829ZM482.49 483.558L483.076 486.779L483.092 486.776L483.108 486.773L482.49 483.558ZM493.406 480.1L494.908 483.01L494.917 483.005L494.925 483L493.406 480.1ZM499.576 474.811L496.823 473.038L496.809 473.059L496.795 473.081L499.576 474.811ZM496.728 459.082L494.843 461.759L494.855 461.768L494.868 461.777L496.728 459.082ZM472.592 456.302L472.953 459.557L472.976 459.554L472.998 459.552L472.592 456.302ZM462.693 457.523L462.254 454.278H462.249L462.693 457.523ZM452.862 458.811L453.229 462.065L453.248 462.063L453.268 462.06L452.862 458.811ZM430.082 457.523L429.195 460.675L429.203 460.677L430.082 457.523ZM418.488 452.031L416.558 454.676L416.566 454.682L416.575 454.688L418.488 452.031ZM408.657 421.453L405.508 420.554L405.502 420.577L405.495 420.6L408.657 421.453ZM412.454 413.318L409.736 411.49L409.729 411.501L412.454 413.318ZM419.234 406.063L421.284 408.616L421.297 408.606L421.309 408.596L419.234 406.063ZM429.2 400.232L427.948 397.206L427.936 397.212L429.2 400.232ZM442.76 396.436L443.331 399.66L443.342 399.658L443.353 399.656L442.76 396.436ZM474.626 395.825L474.257 399.079L474.272 399.081L474.288 399.082L474.626 395.825ZM488.592 397.995L487.919 401.2L487.926 401.201L488.592 397.995ZM501.745 401.453L500.74 404.569L500.755 404.574L500.77 404.579L501.745 401.453ZM513.475 405.86L516.352 407.422L518.036 404.321L514.818 402.873L513.475 405.86ZM504.05 423.216L502.733 426.214L505.491 427.426L506.928 424.779L504.05 423.216ZM494.423 419.623L493.4 422.733L493.418 422.74L493.437 422.745L494.423 419.623ZM471.981 414.809L471.575 418.058L471.596 418.061L471.616 418.063L471.981 414.809ZM445.133 415.351L444.419 412.156L444.411 412.158L445.133 415.351ZM436.048 418.674L437.691 421.506L437.712 421.494L437.733 421.482L436.048 418.674ZM431.302 423.148L428.421 421.591L428.414 421.606L428.406 421.62L431.302 423.148ZM434.285 435.827L432.382 438.491L432.396 438.502L432.41 438.511L434.285 435.827ZM455.371 438.335L455.711 441.592L455.732 441.59L455.753 441.588L455.371 438.335ZM464.998 437.183L464.608 433.932H464.603L464.998 437.183ZM475.304 436.098L475.6 439.359L475.619 439.357L475.638 439.356L475.304 436.098ZM502.084 437.657L501.165 440.8L501.173 440.803L502.084 437.657ZM514.22 443.692L512.166 446.242L512.177 446.25L512.188 446.259L514.22 443.692ZM521.61 453.116L518.626 454.462L518.629 454.469L518.632 454.476L521.61 453.116ZM519.848 481.795L517.033 480.122L517.028 480.13L519.848 481.795ZM507.779 493.863L509.517 496.638L509.524 496.634L507.779 493.863ZM488.931 501.321L489.656 504.514L489.665 504.512L489.675 504.51L488.931 501.321ZM446.828 502.677L447.266 499.432L447.253 499.43L447.24 499.428L446.828 502.677ZM430.421 499.558L429.568 502.72L429.584 502.724L429.601 502.728L430.421 499.558ZM415.505 494.609L414.254 497.635L414.271 497.642L414.289 497.649L415.505 494.609ZM402.419 488.236L399.683 486.436L397.77 489.346L400.791 491.077L402.419 488.236ZM412.267 473.663C416.195 475.881 420.173 477.893 424.199 479.698L426.878 473.722C423.041 472.001 419.244 470.081 415.488 467.96L412.267 473.663ZM424.241 479.716C428.349 481.49 432.594 483.006 436.974 484.264L438.782 477.969C434.665 476.787 430.684 475.365 426.837 473.704L424.241 479.716ZM437.005 484.273C441.405 485.49 446.002 486.422 450.794 487.073L451.676 480.584C447.157 479.97 442.849 479.094 438.751 477.961L437.005 484.273ZM450.798 487.074C455.659 487.728 460.8 488.052 466.219 488.052V481.503C461.06 481.503 456.212 481.195 451.672 480.583L450.798 487.074ZM466.219 488.052C472.717 488.052 478.349 487.639 483.076 486.779L481.905 480.336C477.683 481.103 472.467 481.503 466.219 481.503V488.052ZM483.108 486.773C487.766 485.879 491.733 484.648 494.908 483.01L491.904 477.19C489.474 478.444 486.164 479.518 481.873 480.342L483.108 486.773ZM494.925 483C498.119 481.327 500.694 479.212 502.356 476.541L496.795 473.081C495.926 474.478 494.388 475.889 491.887 477.199L494.925 483ZM502.328 476.585C503.976 474.028 504.816 471.199 504.816 468.167H498.267C498.267 469.927 497.797 471.527 496.823 473.038L502.328 476.585ZM504.816 468.167C504.816 463.23 502.667 459.202 498.588 456.387L494.868 461.777C497.207 463.391 498.267 465.42 498.267 468.167H504.816ZM498.614 456.405C494.585 453.567 488.819 452.417 481.88 452.417V458.967C488.32 458.967 492.453 460.077 494.843 461.759L498.614 456.405ZM481.88 452.417C478.792 452.417 475.559 452.631 472.185 453.053L472.998 459.552C476.133 459.16 479.093 458.967 481.88 458.967V452.417ZM472.23 453.048C468.949 453.412 465.624 453.822 462.254 454.278L463.131 460.768C466.451 460.319 469.725 459.915 472.953 459.557L472.23 453.048ZM462.249 454.278C458.962 454.729 455.697 455.156 452.456 455.561L453.268 462.06C456.536 461.652 459.825 461.221 463.137 460.767L462.249 454.278ZM452.495 455.557C449.392 455.906 446.487 456.079 443.777 456.079V462.628C446.762 462.628 449.914 462.438 453.229 462.065L452.495 455.557ZM443.777 456.079C439.315 456.079 435.046 455.505 430.96 454.368L429.203 460.677C433.886 461.981 438.747 462.628 443.777 462.628V456.079ZM430.968 454.37C426.968 453.245 423.457 451.573 420.401 449.373L416.575 454.688C420.299 457.37 424.516 459.359 429.195 460.675L430.968 454.37ZM420.418 449.386C417.468 447.233 415.124 444.552 413.365 441.315L407.61 444.441C409.829 448.526 412.818 451.947 416.558 454.676L420.418 449.386ZM413.365 441.315C411.678 438.21 410.779 434.493 410.779 430.064H404.23C404.23 435.397 405.319 440.224 407.61 444.441L413.365 441.315ZM410.779 430.064C410.779 427.465 411.124 424.881 411.818 422.307L405.495 420.6C404.654 423.721 404.23 426.877 404.23 430.064H410.779ZM411.806 422.353C412.522 419.846 413.64 417.441 415.178 415.134L409.729 411.501C407.832 414.346 406.419 417.366 405.508 420.554L411.806 422.353ZM415.171 415.145C416.729 412.828 418.754 410.648 421.284 408.616L417.183 403.51C414.199 405.907 411.704 408.564 409.736 411.49L415.171 415.145ZM421.309 408.596C423.781 406.569 426.818 404.779 430.465 403.253L427.936 397.212C423.808 398.94 420.2 401.037 417.158 403.53L421.309 408.596ZM430.452 403.258C434.124 401.739 438.408 400.531 443.331 399.66L442.189 393.211C436.897 394.148 432.141 395.471 427.948 397.206L430.452 403.258ZM443.353 399.656C448.269 398.75 453.918 398.286 460.32 398.286V391.737C453.614 391.737 447.557 392.222 442.167 393.215L443.353 399.656ZM460.32 398.286C464.941 398.286 469.586 398.55 474.257 399.079L474.994 392.572C470.082 392.015 465.191 391.737 460.32 391.737V398.286ZM474.288 399.082C478.971 399.568 483.515 400.275 487.919 401.2L489.265 394.79C484.63 393.817 479.862 393.077 474.964 392.568L474.288 399.082ZM487.926 401.201C492.383 402.128 496.654 403.251 500.74 404.569L502.751 398.336C498.43 396.942 493.932 395.761 489.259 394.789L487.926 401.201ZM500.77 404.579C504.862 405.855 508.647 407.278 512.131 408.846L514.818 402.873C511.07 401.187 507.036 399.672 502.72 398.327L500.77 404.579ZM510.597 404.297L501.173 421.654L506.928 424.779L516.352 407.422L510.597 404.297ZM505.368 420.218C502.266 418.855 498.945 417.617 495.409 416.5L493.437 422.745C496.771 423.798 499.869 424.955 502.733 426.214L505.368 420.218ZM495.446 416.512C491.897 415.345 488.193 414.344 484.337 413.507L482.949 419.908C486.596 420.699 490.079 421.641 493.4 422.733L495.446 416.512ZM484.337 413.507C480.471 412.669 476.474 412.019 472.347 411.555L471.616 418.063C475.534 418.503 479.312 419.119 482.949 419.908L484.337 413.507ZM472.388 411.56C468.27 411.045 464.067 410.789 459.778 410.789V417.338C463.805 417.338 467.737 417.579 471.575 418.058L472.388 411.56ZM459.778 410.789C453.724 410.789 448.581 411.225 444.419 412.156L445.847 418.547C449.369 417.76 453.989 417.338 459.778 417.338V410.789ZM444.411 412.158C440.42 413.06 437.027 414.267 434.363 415.866L437.733 421.482C439.589 420.368 442.252 419.36 445.855 418.545L444.411 412.158ZM434.405 415.841C431.811 417.346 429.701 419.225 428.421 421.591L434.183 424.706C434.711 423.728 435.765 422.623 437.691 421.506L434.405 415.841ZM428.406 421.62C427.331 423.656 426.739 425.804 426.739 428.03H433.288C433.288 427.002 433.555 425.895 434.198 424.677L428.406 421.62ZM426.739 428.03C426.739 432.375 428.78 435.919 432.382 438.491L436.188 433.162C434.095 431.667 433.288 430.012 433.288 428.03H426.739ZM432.41 438.511C436.068 441.066 441.211 442.085 447.303 442.085V435.535C441.733 435.535 438.197 434.565 436.16 433.142L432.41 438.511ZM447.303 442.085C449.794 442.085 452.601 441.917 455.711 441.592L455.03 435.079C452.084 435.386 449.512 435.535 447.303 435.535V442.085ZM455.753 441.588C458.831 441.225 462.045 440.841 465.393 440.433L464.603 433.932C461.262 434.339 458.057 434.722 454.988 435.083L455.753 441.588ZM465.388 440.434C468.746 440.031 472.15 439.673 475.6 439.359L475.007 432.837C471.496 433.156 468.03 433.521 464.608 433.932L465.388 440.434ZM475.638 439.356C479.06 439.004 482.361 438.83 485.541 438.83V432.281C482.122 432.281 478.598 432.468 474.97 432.841L475.638 439.356ZM485.541 438.83C491.542 438.83 496.736 439.505 501.165 440.8L503.003 434.514C497.85 433.007 492.016 432.281 485.541 432.281V438.83ZM501.173 440.803C505.676 442.107 509.311 443.942 512.166 446.242L516.275 441.141C512.621 438.198 508.165 436.01 502.996 434.512L501.173 440.803ZM512.188 446.259C515.041 448.517 517.173 451.243 518.626 454.462L524.595 451.769C522.703 447.575 519.909 444.018 516.253 441.124L512.188 446.259ZM518.632 454.476C520.085 457.656 520.844 461.296 520.844 465.455H527.394C527.394 460.484 526.481 455.897 524.589 451.755L518.632 454.476ZM520.844 465.455C520.844 471.026 519.551 475.884 517.033 480.122L522.663 483.468C525.839 478.123 527.394 472.088 527.394 465.455H520.844ZM517.028 480.13C514.522 484.373 510.892 488.035 506.035 491.092L509.524 496.634C515.153 493.092 519.568 488.708 522.667 483.46L517.028 480.13ZM506.042 491.088C501.212 494.111 495.282 496.478 488.188 498.132L489.675 504.51C497.315 502.729 503.951 500.123 509.517 496.638L506.042 491.088ZM488.206 498.128C481.118 499.737 473.162 500.555 464.32 500.555V507.104C473.558 507.104 482.01 506.25 489.656 504.514L488.206 498.128ZM464.32 500.555C458.495 500.555 452.81 500.18 447.266 499.432L446.39 505.922C452.236 506.711 458.213 507.104 464.32 507.104V500.555ZM447.24 499.428C441.674 498.722 436.342 497.707 431.24 496.388L429.601 502.728C434.985 504.121 440.591 505.186 446.415 505.925L447.24 499.428ZM431.273 496.396C426.192 495.027 421.342 493.417 416.721 491.568L414.289 497.649C419.159 499.597 424.253 501.287 429.568 502.72L431.273 496.396ZM416.756 491.583C412.172 489.688 407.938 487.624 404.048 485.394L400.791 491.077C404.947 493.458 409.436 495.643 414.254 497.635L416.756 491.583ZM405.155 490.035L416.614 472.61L411.141 469.012L399.683 486.436L405.155 490.035ZM579.714 415.216H582.989V411.941H579.714V415.216ZM540.594 415.216H537.32V418.49H540.594V415.216ZM540.594 396.368V393.093H537.32V396.368H540.594ZM640.327 396.368H643.602V393.093H640.327V396.368ZM640.327 415.216V418.49H643.602V415.216H640.327ZM601.207 415.216V411.941H597.932V415.216H601.207ZM601.207 502.338V505.612H604.481V502.338H601.207ZM579.714 502.338H576.44V505.612H579.714V502.338ZM579.714 411.941H540.594V418.49H579.714V411.941ZM543.869 415.216V396.368H537.32V415.216H543.869ZM540.594 399.642H640.327V393.093H540.594V399.642ZM637.052 396.368V415.216H643.602V396.368H637.052ZM640.327 411.941H601.207V418.49H640.327V411.941ZM597.932 415.216V502.338H604.481V415.216H597.932ZM601.207 499.063H579.714V505.612H601.207V499.063ZM582.989 502.338V415.216H576.44V502.338H582.989Z" fill="white"/>
</g>
<path d="M37.6747 560.344H33.5272C33.282 559.151 32.8527 558.103 32.2395 557.199C31.6374 556.296 30.9016 555.538 30.032 554.925C29.1735 554.301 28.2202 553.832 27.1722 553.52C26.1242 553.208 25.0316 553.052 23.8943 553.052C21.8206 553.052 19.9419 553.576 18.2584 554.624C16.586 555.672 15.2537 557.216 14.2614 559.256C13.2803 561.297 12.7897 563.8 12.7897 566.765C12.7897 569.731 13.2803 572.234 14.2614 574.274C15.2537 576.315 16.586 577.859 18.2584 578.907C19.9419 579.955 21.8206 580.479 23.8943 580.479C25.0316 580.479 26.1242 580.323 27.1722 580.011C28.2202 579.699 29.1735 579.236 30.032 578.623C30.9016 577.998 31.6374 577.235 32.2395 576.331C32.8527 575.417 33.282 574.369 33.5272 573.187H37.6747C37.3626 574.938 36.794 576.504 35.9689 577.887C35.1439 579.269 34.1181 580.446 32.8917 581.416C31.6653 582.374 30.2884 583.105 28.761 583.606C27.2447 584.108 25.6225 584.359 23.8943 584.359C20.9732 584.359 18.3755 583.645 16.101 582.218C13.8266 580.791 12.0372 578.762 10.7327 576.131C9.42823 573.5 8.776 570.378 8.776 566.765C8.776 563.153 9.42823 560.031 10.7327 557.4C12.0372 554.769 13.8266 552.74 16.101 551.313C18.3755 549.886 20.9732 549.172 23.8943 549.172C25.6225 549.172 27.2447 549.423 28.761 549.925C30.2884 550.426 31.6653 551.162 32.8917 552.132C34.1181 553.091 35.1439 554.262 35.9689 555.644C36.794 557.015 37.3626 558.582 37.6747 560.344ZM52.0296 549.64H56.7792L66.2783 565.628H66.6796L76.1788 549.64H80.9283L68.5527 569.776V583.891H64.4052V569.776L52.0296 549.64ZM96.8887 583.891V549.64H108.863C111.249 549.64 113.217 550.053 114.766 550.878C116.316 551.692 117.47 552.79 118.228 554.172C118.986 555.544 119.365 557.066 119.365 558.738C119.365 560.21 119.103 561.425 118.579 562.384C118.067 563.343 117.386 564.101 116.539 564.658C115.703 565.216 114.794 565.628 113.813 565.896V566.23C114.861 566.297 115.915 566.665 116.974 567.334C118.033 568.003 118.919 568.962 119.633 570.211C120.347 571.459 120.703 572.987 120.703 574.793C120.703 576.51 120.313 578.054 119.533 579.425C118.752 580.797 117.52 581.884 115.837 582.687C114.153 583.489 111.962 583.891 109.264 583.891H96.8887ZM101.036 580.211H109.264C111.974 580.211 113.897 579.687 115.034 578.639C116.182 577.58 116.757 576.298 116.757 574.793C116.757 573.633 116.461 572.563 115.87 571.582C115.279 570.59 114.437 569.798 113.345 569.207C112.252 568.605 110.959 568.304 109.465 568.304H101.036V580.211ZM101.036 564.692H108.729C109.978 564.692 111.104 564.446 112.107 563.956C113.122 563.465 113.925 562.774 114.516 561.882C115.118 560.99 115.419 559.942 115.419 558.738C115.419 557.233 114.895 555.956 113.847 554.908C112.799 553.849 111.137 553.32 108.863 553.32H101.036V564.692ZM138.114 583.891V549.64H158.785V553.32H142.262V564.892H157.715V568.572H142.262V580.211H159.053V583.891H138.114ZM176.857 583.891V549.64H188.43C191.105 549.64 193.302 550.097 195.019 551.012C196.736 551.915 198.007 553.158 198.832 554.741C199.657 556.324 200.069 558.125 200.069 560.143C200.069 562.161 199.657 563.95 198.832 565.511C198.007 567.072 196.741 568.298 195.036 569.19C193.33 570.071 191.15 570.512 188.497 570.512H179.131V566.765H188.363C190.191 566.765 191.663 566.498 192.778 565.963C193.904 565.428 194.718 564.669 195.22 563.688C195.732 562.696 195.989 561.514 195.989 560.143C195.989 558.771 195.732 557.573 195.22 556.547C194.707 555.522 193.887 554.73 192.761 554.172C191.635 553.604 190.147 553.32 188.296 553.32H181.004V583.891H176.857ZM192.979 568.505L201.407 583.891H196.591L188.296 568.505H192.979ZM241.418 583.891V549.64H245.566V566.632H245.967L261.353 549.64H266.771L252.389 565.093L266.771 583.891H261.754L249.847 567.97L245.566 572.786V583.891H241.418ZM279.793 549.64H284.542L294.041 565.628H294.443L303.942 549.64H308.691L296.316 569.776V583.891H292.168V569.776L279.793 549.64ZM324.652 583.891V549.64H336.224C338.9 549.64 341.097 550.097 342.814 551.012C344.531 551.915 345.802 553.158 346.627 554.741C347.452 556.324 347.864 558.125 347.864 560.143C347.864 562.161 347.452 563.95 346.627 565.511C345.802 567.072 344.536 568.298 342.83 569.19C341.125 570.071 338.945 570.512 336.291 570.512H326.926V566.765H336.158C337.986 566.765 339.458 566.498 340.573 565.963C341.699 565.428 342.513 564.669 343.014 563.688C343.527 562.696 343.784 561.514 343.784 560.143C343.784 558.771 343.527 557.573 343.014 556.547C342.501 555.522 341.682 554.73 340.556 554.172C339.43 553.604 337.941 553.32 336.091 553.32H328.799V583.891H324.652ZM340.773 568.505L349.202 583.891H344.386L336.091 568.505H340.773ZM388.785 560.344C388.417 559.217 387.932 558.208 387.33 557.317C386.739 556.413 386.031 555.644 385.206 555.009C384.392 554.373 383.467 553.888 382.43 553.554C381.393 553.219 380.256 553.052 379.018 553.052C376.989 553.052 375.144 553.576 373.483 554.624C371.821 555.672 370.5 557.216 369.519 559.256C368.538 561.297 368.047 563.8 368.047 566.765C368.047 569.731 368.543 572.234 369.536 574.274C370.528 576.315 371.872 577.859 373.566 578.907C375.261 579.955 377.167 580.479 379.286 580.479C381.248 580.479 382.976 580.061 384.47 579.225C385.975 578.377 387.146 577.184 387.982 575.646C388.829 574.096 389.253 572.273 389.253 570.177L390.524 570.445H380.222V566.765H393.267V570.445C393.267 573.265 392.665 575.718 391.461 577.803C390.268 579.888 388.618 581.505 386.51 582.653C384.414 583.79 382.006 584.359 379.286 584.359C376.253 584.359 373.588 583.645 371.292 582.218C369.006 580.791 367.222 578.762 365.94 576.131C364.669 573.5 364.034 570.378 364.034 566.765C364.034 564.056 364.396 561.62 365.121 559.457C365.857 557.283 366.893 555.432 368.231 553.905C369.569 552.377 371.152 551.207 372.981 550.393C374.809 549.579 376.822 549.172 379.018 549.172C380.824 549.172 382.508 549.445 384.069 549.992C385.641 550.527 387.04 551.29 388.266 552.283C389.504 553.264 390.535 554.44 391.36 555.811C392.185 557.172 392.754 558.682 393.066 560.344H388.785ZM406.965 549.64H411.715L421.214 565.628H421.615L431.114 549.64H435.864L423.488 569.776V583.891H419.341V569.776L406.965 549.64ZM450.687 583.891V580.88L469.15 553.32H450.486V549.64H474.1V552.651L455.637 580.211H474.301V583.891H450.687ZM510.585 558.203C510.384 556.508 509.57 555.193 508.143 554.256C506.716 553.32 504.966 552.851 502.892 552.851C501.376 552.851 500.049 553.097 498.912 553.587C497.786 554.078 496.905 554.752 496.269 555.611C495.645 556.469 495.333 557.445 495.333 558.537C495.333 559.452 495.55 560.238 495.985 560.895C496.431 561.542 497 562.083 497.691 562.518C498.382 562.941 499.107 563.292 499.865 563.571C500.623 563.839 501.32 564.056 501.956 564.223L505.434 565.16C506.326 565.394 507.318 565.717 508.411 566.13C509.515 566.542 510.568 567.106 511.572 567.819C512.586 568.521 513.423 569.425 514.08 570.528C514.738 571.632 515.067 572.987 515.067 574.592C515.067 576.443 514.582 578.115 513.612 579.609C512.653 581.103 511.248 582.291 509.398 583.172C507.558 584.052 505.323 584.493 502.691 584.493C500.239 584.493 498.115 584.097 496.32 583.305C494.536 582.514 493.131 581.41 492.105 579.994C491.091 578.578 490.517 576.934 490.383 575.06H494.664C494.775 576.354 495.21 577.424 495.968 578.271C496.738 579.108 497.708 579.732 498.878 580.144C500.06 580.546 501.331 580.747 502.691 580.747C504.275 580.747 505.696 580.49 506.956 579.977C508.216 579.453 509.214 578.729 509.95 577.803C510.685 576.867 511.053 575.774 511.053 574.525C511.053 573.388 510.736 572.463 510.1 571.749C509.465 571.036 508.628 570.456 507.591 570.01C506.555 569.564 505.434 569.174 504.23 568.839L500.016 567.635C497.34 566.866 495.221 565.768 493.661 564.341C492.1 562.913 491.319 561.046 491.319 558.738C491.319 556.82 491.838 555.148 492.875 553.721C493.923 552.283 495.327 551.168 497.089 550.376C498.862 549.573 500.841 549.172 503.026 549.172C505.233 549.172 507.196 549.568 508.913 550.359C510.63 551.14 511.99 552.21 512.993 553.57C514.008 554.931 514.543 556.475 514.599 558.203H510.585ZM530.609 553.32V549.64H556.297V553.32H545.527V583.891H541.379V553.32H530.609ZM570.698 583.891H566.35L578.926 549.64H583.207L595.784 583.891H591.435L581.2 555.059H580.933L570.698 583.891ZM572.303 570.512H589.83V574.191H572.303V570.512ZM638.874 549.64V583.891H634.86L616.197 556.999H615.862V583.891H611.715V549.64H615.728L634.459 576.599H634.793V549.64H638.874Z" fill="white"/>
<defs>
<linearGradient id="paint0_linear_103_18" x1="250.91" y1="133.546" x2="377.959" y2="232.318" gradientUnits="userSpaceOnUse">
<stop stop-color="#02027C"/>
<stop offset="1" stop-color="#0871F1"/>
</linearGradient>
<linearGradient id="paint1_linear_103_18" x1="286.823" y1="246.459" x2="344.781" y2="96.3314" gradientUnits="userSpaceOnUse">
<stop stop-color="#02027C"/>
<stop offset="1" stop-color="#0871F1"/>
</linearGradient>
<linearGradient id="paint2_linear_103_18" x1="250.914" y1="133.546" x2="377.963" y2="232.318" gradientUnits="userSpaceOnUse">
<stop stop-color="#02027C"/>
<stop offset="1" stop-color="#0871F1"/>
</linearGradient>
</defs>
</svg>
