<svg  viewBox="0 0 616 375" fill="none" xmlns="http://www.w3.org/2000/svg">
<path d="M30.668 236.944V200.308L119.844 76.2H178.064L91.444 200.308L64.748 192.356H220.096V236.944H30.668ZM135.748 275V236.944L137.452 192.356V158.56H190.56V275H135.748ZM319.267 278.976C302.227 278.976 287.081 274.905 273.827 266.764C260.763 258.623 250.445 246.884 242.871 231.548C235.298 216.212 231.511 197.563 231.511 175.6C231.511 153.637 235.298 134.988 242.871 119.652C250.445 104.316 260.763 92.5773 273.827 84.436C287.081 76.2947 302.227 72.224 319.267 72.224C336.118 72.224 351.075 76.2947 364.139 84.436C377.393 92.5773 387.806 104.316 395.379 119.652C402.953 134.988 406.739 153.637 406.739 175.6C406.739 197.563 402.953 216.212 395.379 231.548C387.806 246.884 377.393 258.623 364.139 266.764C351.075 274.905 336.118 278.976 319.267 278.976ZM319.267 232.968C325.326 232.968 330.627 231.075 335.171 227.288C339.905 223.501 343.597 217.443 346.247 209.112C348.898 200.592 350.223 189.421 350.223 175.6C350.223 161.589 348.898 150.419 346.247 142.088C343.597 133.757 339.905 127.699 335.171 123.912C330.627 120.125 325.326 118.232 319.267 118.232C313.209 118.232 307.813 120.125 303.079 123.912C298.535 127.699 294.843 133.757 292.003 142.088C289.353 150.419 288.027 161.589 288.027 175.6C288.027 189.421 289.353 200.592 292.003 209.112C294.843 217.443 298.535 223.501 303.079 227.288C307.813 231.075 313.209 232.968 319.267 232.968ZM423.941 236.944V200.308L513.117 76.2H571.337L484.717 200.308L458.021 192.356H613.369V236.944H423.941ZM529.021 275V236.944L530.725 192.356V158.56H583.833V275H529.021Z" fill="white"/>
<path d="M19.668 236.944V200.308L108.844 76.2H167.064L80.444 200.308L53.748 192.356H209.096V236.944H19.668ZM124.748 275V236.944L126.452 192.356V158.56H179.56V275H124.748ZM308.267 278.976C291.227 278.976 276.081 274.905 262.827 266.764C249.763 258.623 239.445 246.884 231.871 231.548C224.298 216.212 220.511 197.563 220.511 175.6C220.511 153.637 224.298 134.988 231.871 119.652C239.445 104.316 249.763 92.5773 262.827 84.436C276.081 76.2947 291.227 72.224 308.267 72.224C325.118 72.224 340.075 76.2947 353.139 84.436C366.393 92.5773 376.806 104.316 384.379 119.652C391.953 134.988 395.739 153.637 395.739 175.6C395.739 197.563 391.953 216.212 384.379 231.548C376.806 246.884 366.393 258.623 353.139 266.764C340.075 274.905 325.118 278.976 308.267 278.976ZM308.267 232.968C314.326 232.968 319.627 231.075 324.171 227.288C328.905 223.501 332.597 217.443 335.247 209.112C337.898 200.592 339.223 189.421 339.223 175.6C339.223 161.589 337.898 150.419 335.247 142.088C332.597 133.757 328.905 127.699 324.171 123.912C319.627 120.125 314.326 118.232 308.267 118.232C302.209 118.232 296.813 120.125 292.079 123.912C287.535 127.699 283.843 133.757 281.003 142.088C278.353 150.419 277.027 161.589 277.027 175.6C277.027 189.421 278.353 200.592 281.003 209.112C283.843 217.443 287.535 223.501 292.079 227.288C296.813 231.075 302.209 232.968 308.267 232.968ZM412.941 236.944V200.308L502.117 76.2H560.337L473.717 200.308L447.021 192.356H602.369V236.944H412.941ZM518.021 275V236.944L519.725 192.356V158.56H572.833V275H518.021Z" fill="#E31F3A"/>
<path d="M7.668 236.944V200.308L96.844 76.2H155.064L68.444 200.308L41.748 192.356H197.096V236.944H7.668ZM112.748 275V236.944L114.452 192.356V158.56H167.56V275H112.748ZM296.267 278.976C279.227 278.976 264.081 274.905 250.827 266.764C237.763 258.623 227.445 246.884 219.871 231.548C212.298 216.212 208.511 197.563 208.511 175.6C208.511 153.637 212.298 134.988 219.871 119.652C227.445 104.316 237.763 92.5773 250.827 84.436C264.081 76.2947 279.227 72.224 296.267 72.224C313.118 72.224 328.075 76.2947 341.139 84.436C354.393 92.5773 364.806 104.316 372.379 119.652C379.953 134.988 383.739 153.637 383.739 175.6C383.739 197.563 379.953 216.212 372.379 231.548C364.806 246.884 354.393 258.623 341.139 266.764C328.075 274.905 313.118 278.976 296.267 278.976ZM296.267 232.968C302.326 232.968 307.627 231.075 312.171 227.288C316.905 223.501 320.597 217.443 323.247 209.112C325.898 200.592 327.223 189.421 327.223 175.6C327.223 161.589 325.898 150.419 323.247 142.088C320.597 133.757 316.905 127.699 312.171 123.912C307.627 120.125 302.326 118.232 296.267 118.232C290.209 118.232 284.813 120.125 280.079 123.912C275.535 127.699 271.843 133.757 269.003 142.088C266.353 150.419 265.027 161.589 265.027 175.6C265.027 189.421 266.353 200.592 269.003 209.112C271.843 217.443 275.535 223.501 280.079 227.288C284.813 231.075 290.209 232.968 296.267 232.968ZM400.941 236.944V200.308L490.117 76.2H548.337L461.717 200.308L435.021 192.356H590.369V236.944H400.941ZM506.021 275V236.944L507.725 192.356V158.56H560.833V275H506.021Z" fill="#FEAB8E"/>
<path d="M192.686 355.148C188.094 355.148 183.857 354.41 179.976 352.934C176.095 351.458 172.705 349.381 169.808 346.702C166.965 343.969 164.751 340.798 163.166 337.19C161.581 333.582 160.788 329.619 160.788 325.3C160.788 320.981 161.581 317.018 163.166 313.41C164.751 309.802 166.965 306.659 169.808 303.98C172.705 301.247 176.095 299.142 179.976 297.666C183.857 296.19 188.094 295.452 192.686 295.452C197.333 295.452 201.569 296.19 205.396 297.666C209.277 299.142 212.639 301.247 215.482 303.98C218.325 306.659 220.539 309.802 222.124 313.41C223.764 317.018 224.584 320.981 224.584 325.3C224.584 329.619 223.764 333.609 222.124 337.272C220.539 340.88 218.325 344.023 215.482 346.702C212.639 349.381 209.277 351.458 205.396 352.934C201.569 354.41 197.333 355.148 192.686 355.148ZM192.686 341.7C194.873 341.7 196.895 341.317 198.754 340.552C200.667 339.787 202.307 338.693 203.674 337.272C205.095 335.796 206.189 334.047 206.954 332.024C207.774 330.001 208.184 327.76 208.184 325.3C208.184 322.785 207.774 320.544 206.954 318.576C206.189 316.553 205.095 314.831 203.674 313.41C202.307 311.934 200.667 310.813 198.754 310.048C196.895 309.283 194.873 308.9 192.686 308.9C190.499 308.9 188.449 309.283 186.536 310.048C184.677 310.813 183.037 311.934 181.616 313.41C180.249 314.831 179.156 316.553 178.336 318.576C177.571 320.544 177.188 322.785 177.188 325.3C177.188 327.76 177.571 330.001 178.336 332.024C179.156 334.047 180.249 335.796 181.616 337.272C183.037 338.693 184.677 339.787 186.536 340.552C188.449 341.317 190.499 341.7 192.686 341.7ZM262.034 355.148C257.442 355.148 253.205 354.41 249.324 352.934C245.442 351.458 242.053 349.381 239.156 346.702C236.313 343.969 234.099 340.798 232.514 337.19C230.928 333.582 230.136 329.619 230.136 325.3C230.136 320.981 230.928 317.018 232.514 313.41C234.099 309.802 236.313 306.659 239.156 303.98C242.053 301.247 245.442 299.142 249.324 297.666C253.205 296.19 257.442 295.452 262.034 295.452C266.68 295.452 270.917 296.19 274.744 297.666C278.625 299.142 281.987 301.247 284.83 303.98C287.672 306.659 289.886 309.802 291.472 313.41C293.112 317.018 293.932 320.981 293.932 325.3C293.932 329.619 293.112 333.609 291.472 337.272C289.886 340.88 287.672 344.023 284.83 346.702C281.987 349.381 278.625 351.458 274.744 352.934C270.917 354.41 266.68 355.148 262.034 355.148ZM262.034 341.7C264.22 341.7 266.243 341.317 268.102 340.552C270.015 339.787 271.655 338.693 273.022 337.272C274.443 335.796 275.536 334.047 276.302 332.024C277.122 330.001 277.532 327.76 277.532 325.3C277.532 322.785 277.122 320.544 276.302 318.576C275.536 316.553 274.443 314.831 273.022 313.41C271.655 311.934 270.015 310.813 268.102 310.048C266.243 309.283 264.22 308.9 262.034 308.9C259.847 308.9 257.797 309.283 255.884 310.048C254.025 310.813 252.385 311.934 250.964 313.41C249.597 314.831 248.504 316.553 247.684 318.576C246.918 320.544 246.536 322.785 246.536 325.3C246.536 327.76 246.918 330.001 247.684 332.024C248.504 334.047 249.597 335.796 250.964 337.272C252.385 338.693 254.025 339.787 255.884 340.552C257.797 341.317 259.847 341.7 262.034 341.7ZM302.435 354V296.6H328.675C333.923 296.6 338.433 297.447 342.205 299.142C346.032 300.837 348.984 303.297 351.061 306.522C353.139 309.693 354.177 313.465 354.177 317.838C354.177 322.157 353.139 325.901 351.061 329.072C348.984 332.243 346.032 334.703 342.205 336.452C338.433 338.147 333.923 338.994 328.675 338.994H311.455L318.671 331.942V354H302.435ZM318.671 333.664L311.455 326.202H327.691C331.081 326.202 333.595 325.464 335.235 323.988C336.93 322.512 337.777 320.462 337.777 317.838C337.777 315.159 336.93 313.082 335.235 311.606C333.595 310.13 331.081 309.392 327.691 309.392H311.455L318.671 301.93V333.664ZM383.066 355.148C378.365 355.148 373.828 354.574 369.454 353.426C365.136 352.223 361.61 350.693 358.876 348.834L364.206 336.862C366.776 338.502 369.728 339.869 373.062 340.962C376.452 342.001 379.814 342.52 383.148 342.52C385.39 342.52 387.194 342.329 388.56 341.946C389.927 341.509 390.911 340.962 391.512 340.306C392.168 339.595 392.496 338.775 392.496 337.846C392.496 336.534 391.895 335.495 390.692 334.73C389.49 333.965 387.932 333.336 386.018 332.844C384.105 332.352 381.973 331.86 379.622 331.368C377.326 330.876 375.003 330.247 372.652 329.482C370.356 328.717 368.252 327.733 366.338 326.53C364.425 325.273 362.867 323.66 361.664 321.692C360.462 319.669 359.86 317.127 359.86 314.066C359.86 310.622 360.79 307.506 362.648 304.718C364.562 301.93 367.404 299.689 371.176 297.994C374.948 296.299 379.65 295.452 385.28 295.452C389.052 295.452 392.742 295.889 396.35 296.764C400.013 297.584 403.266 298.814 406.108 300.454L401.106 312.508C398.373 311.032 395.667 309.939 392.988 309.228C390.31 308.463 387.713 308.08 385.198 308.08C382.957 308.08 381.153 308.326 379.786 308.818C378.42 309.255 377.436 309.857 376.834 310.622C376.233 311.387 375.932 312.262 375.932 313.246C375.932 314.503 376.506 315.515 377.654 316.28C378.857 316.991 380.415 317.592 382.328 318.084C384.296 318.521 386.428 318.986 388.724 319.478C391.075 319.97 393.398 320.599 395.694 321.364C398.045 322.075 400.177 323.059 402.09 324.316C404.004 325.519 405.534 327.131 406.682 329.154C407.885 331.122 408.486 333.609 408.486 336.616C408.486 339.951 407.53 343.039 405.616 345.882C403.758 348.67 400.942 350.911 397.17 352.606C393.453 354.301 388.752 355.148 383.066 355.148ZM416.396 333.09L413.362 296.6H431.894L428.778 333.09H416.396ZM422.628 354.738C419.895 354.738 417.653 353.891 415.904 352.196C414.155 350.501 413.28 348.479 413.28 346.128C413.28 343.723 414.155 341.727 415.904 340.142C417.653 338.502 419.895 337.682 422.628 337.682C425.361 337.682 427.575 338.502 429.27 340.142C431.019 341.727 431.894 343.723 431.894 346.128C431.894 348.479 431.019 350.501 429.27 352.196C427.575 353.891 425.361 354.738 422.628 354.738Z" fill="white"/>
</svg>
