<svg width="17" height="17" viewBox="0 0 17 17" fill="none" xmlns="http://www.w3.org/2000/svg">
<path d="M8.875 4.20703C11.0898 4.20703 12.918 6.03516 12.918 8.25C12.918 10.5 11.0898 12.293 8.875 12.293C6.625 12.293 4.83203 10.5 4.83203 8.25C4.83203 6.03516 6.625 4.20703 8.875 4.20703ZM8.875 10.8867C10.3164 10.8867 11.4766 9.72656 11.4766 8.25C11.4766 6.80859 10.3164 5.64844 8.875 5.64844C7.39844 5.64844 6.23828 6.80859 6.23828 8.25C6.23828 9.72656 7.43359 10.8867 8.875 10.8867ZM14.0078 4.06641C14.0078 4.59375 13.5859 5.01562 13.0586 5.01562C12.5312 5.01562 12.1094 4.59375 12.1094 4.06641C12.1094 3.53906 12.5312 3.11719 13.0586 3.11719C13.5859 3.11719 14.0078 3.53906 14.0078 4.06641ZM16.6797 5.01562C16.75 6.31641 16.75 10.2188 16.6797 11.5195C16.6094 12.7852 16.3281 13.875 15.4141 14.8242C14.5 15.7383 13.375 16.0195 12.1094 16.0898C10.8086 16.1602 6.90625 16.1602 5.60547 16.0898C4.33984 16.0195 3.25 15.7383 2.30078 14.8242C1.38672 13.875 1.10547 12.7852 1.03516 11.5195C0.964844 10.2188 0.964844 6.31641 1.03516 5.01562C1.10547 3.75 1.38672 2.625 2.30078 1.71094C3.25 0.796875 4.33984 0.515625 5.60547 0.445312C6.90625 0.375 10.8086 0.375 12.1094 0.445312C13.375 0.515625 14.5 0.796875 15.4141 1.71094C16.3281 2.625 16.6094 3.75 16.6797 5.01562ZM14.9922 12.8906C15.4141 11.8711 15.3086 9.41016 15.3086 8.25C15.3086 7.125 15.4141 4.66406 14.9922 3.60938C14.7109 2.94141 14.1836 2.37891 13.5156 2.13281C12.4609 1.71094 10 1.81641 8.875 1.81641C7.71484 1.81641 5.25391 1.71094 4.23438 2.13281C3.53125 2.41406 3.00391 2.94141 2.72266 3.60938C2.30078 4.66406 2.40625 7.125 2.40625 8.25C2.40625 9.41016 2.30078 11.8711 2.72266 12.8906C3.00391 13.5938 3.53125 14.1211 4.23438 14.4023C5.25391 14.8242 7.71484 14.7188 8.875 14.7188C10 14.7188 12.4609 14.8242 13.5156 14.4023C14.1836 14.1211 14.7461 13.5938 14.9922 12.8906Z" fill="white"/>
</svg>
