<svg width="16" height="17" viewBox="0 0 16 17" fill="none" xmlns="http://www.w3.org/2000/svg">
<path d="M13.3594 2.69531C14.8359 4.17188 15.75 6.10547 15.75 8.21484C15.75 12.5039 12.1641 16.0195 7.83984 16.0195C6.53906 16.0195 5.27344 15.668 4.11328 15.0703L0 16.125L1.08984 12.082C0.421875 10.9219 0.0351562 9.58594 0.0351562 8.17969C0.0351562 3.89062 3.55078 0.375 7.83984 0.375C9.94922 0.375 11.918 1.21875 13.3594 2.69531ZM7.83984 14.6836C11.4258 14.6836 14.4141 11.7656 14.4141 8.21484C14.4141 6.45703 13.6758 4.83984 12.4453 3.60938C11.2148 2.37891 9.59766 1.71094 7.875 1.71094C4.28906 1.71094 1.37109 4.62891 1.37109 8.17969C1.37109 9.41016 1.72266 10.6055 2.35547 11.6602L2.53125 11.9062L1.86328 14.2969L4.32422 13.6289L4.53516 13.7695C5.55469 14.3672 6.67969 14.6836 7.83984 14.6836ZM11.4258 9.83203C11.6016 9.9375 11.7422 9.97266 11.7773 10.0781C11.8477 10.1484 11.8477 10.5352 11.6719 10.9922C11.4961 11.4492 10.7227 11.8711 10.3711 11.9062C9.73828 12.0117 9.24609 11.9766 8.01562 11.4141C6.04688 10.5703 4.78125 8.60156 4.67578 8.49609C4.57031 8.35547 3.90234 7.44141 3.90234 6.45703C3.90234 5.50781 4.39453 5.05078 4.57031 4.83984C4.74609 4.62891 4.95703 4.59375 5.09766 4.59375C5.20312 4.59375 5.34375 4.59375 5.44922 4.59375C5.58984 4.59375 5.73047 4.55859 5.90625 4.94531C6.04688 5.33203 6.46875 6.28125 6.50391 6.38672C6.53906 6.49219 6.57422 6.59766 6.50391 6.73828C6.15234 7.47656 5.73047 7.44141 5.94141 7.79297C6.71484 9.09375 7.45312 9.55078 8.61328 10.1133C8.78906 10.2188 8.89453 10.1836 9.03516 10.0781C9.14062 9.9375 9.52734 9.48047 9.63281 9.30469C9.77344 9.09375 9.91406 9.12891 10.0898 9.19922C10.2656 9.26953 11.2148 9.72656 11.4258 9.83203Z" fill="white"/>
</svg>
