<svg width="140" height="48" viewBox="0 0 140 48" fill="none" xmlns="http://www.w3.org/2000/svg">
<path d="M69.6559 12.8572H56.4111V1.03659H98.1446V12.8572H84.8999V46.2544H69.6559V12.8572ZM118.942 47.2867C115.196 47.2867 111.546 46.8685 107.992 46.0279C104.443 45.1873 101.524 44.0593 99.2422 42.6351L104.151 31.5244C106.302 32.7744 108.715 33.7762 111.385 34.5297C114.055 35.2831 116.616 35.6577 119.072 35.6577C121.18 35.6577 122.692 35.453 123.593 35.048C124.499 34.6386 124.952 34.0244 124.952 33.2056C124.952 32.2561 124.36 31.5462 123.175 31.0715C121.99 30.6011 120.044 30.0828 117.33 29.5209C113.842 28.7892 110.932 28.0053 108.606 27.1647C106.281 26.3241 104.26 24.9478 102.535 23.0314C100.815 21.115 99.9521 18.5192 99.9521 15.2483C99.9521 12.4042 100.749 9.82144 102.343 7.49565C103.933 5.16987 106.315 3.3406 109.482 2.00349C112.644 0.670734 116.49 0 121.011 0C124.112 0 127.156 0.335366 130.153 1.00174C133.145 1.67248 135.78 2.64809 138.066 3.94164L133.476 14.987C129.042 12.7483 124.843 11.6289 120.88 11.6289C116.964 11.6289 115.004 12.5784 115.004 14.473C115.004 15.3746 115.584 16.054 116.747 16.507C117.909 16.96 119.826 17.4434 122.496 17.9617C125.941 18.6063 128.85 19.3467 131.215 20.1873C133.585 21.0279 135.64 22.3955 137.387 24.2901C139.129 26.1847 140 28.7675 140 32.0427C140 34.8825 139.207 37.4565 137.613 39.7605C136.019 42.0645 133.641 43.8938 130.475 45.2527C127.308 46.6072 123.467 47.2867 118.942 47.2867Z" fill="#FEFEFE"/>
<path d="M22.6002 46.2024C35.082 46.2024 45.2004 36.0839 45.2004 23.6022C45.2004 11.1204 35.082 1.00195 22.6002 1.00195C10.1185 1.00195 0 11.1204 0 23.6022C0 36.0839 10.1185 46.2024 22.6002 46.2024Z" fill="#FEFEFE"/>
<path fill-rule="evenodd" clip-rule="evenodd" d="M39.8694 23.6365L26.6202 31.2846L13.3711 38.9327V23.6365V8.34033L26.6202 15.9884L39.8694 23.6365Z" fill="#E42520"/>
</svg>
