<svg  viewBox="0 0 249 87" fill="none" xmlns="http://www.w3.org/2000/svg">
<g clip-path="url(#clip0_2500_352)">
<path fill-rule="evenodd" clip-rule="evenodd" d="M224.1 64.3745C216.992 64.3745 211.208 58.5831 211.208 51.4643C211.208 44.3456 216.992 38.554 224.1 38.554C231.208 38.554 236.992 44.3456 236.992 51.4643C236.992 58.5831 231.208 64.3745 224.1 64.3745ZM224.453 26.8817C237.988 26.8817 249 37.83 249 51.2874C249 64.7446 237.988 75.6933 224.453 75.6933C210.918 75.6933 199.906 64.7446 199.906 51.2874C199.906 37.83 210.918 26.8817 224.453 26.8817ZM88.4265 69.4864C87.9457 66.3577 87.6668 62.6622 87.5921 59.1955C87.5584 57.6256 88.8924 24.9458 88.8924 24.9458L88.945 24.948L89.1835 15.3661C89.1818 14.7442 89.1774 14.1334 89.173 13.5204C92.5284 11.6246 96.3685 9.76406 100.296 8.48893C100.442 12.4197 100.381 17.2549 100.257 22.0727C99.9923 32.3238 99.5408 43.3595 99.4263 48.9448C99.3167 54.266 99.2309 58.1886 99.2309 58.5726C99.242 64.2442 100.225 68.2889 101.544 71.5079C103.072 75.2345 107.723 79.3484 107.723 79.3484L101.155 85.9505C95.7931 82.8423 90.6089 77.7603 88.4265 69.4864ZM1.06092 70.7438C0.440359 67.3707 0.0864611 63.0972 0.000635403 59.1245C-0.033271 57.5574 1.30109 24.9232 1.30109 24.9232L1.35407 24.9246L1.59212 15.3565C1.59035 14.7358 1.58611 14.1256 1.58187 13.5137C4.93755 11.62 8.77742 9.76229 12.7046 8.48893C12.8501 12.4144 12.7904 17.2425 12.6657 22.0536C12.4008 32.2902 11.9495 43.3107 11.8347 48.8882C11.7252 54.202 11.6394 58.1193 11.6397 58.5028C11.6507 64.1661 12.6332 68.2058 13.9527 71.4198C15.4807 75.1409 20.1318 79.2498 20.1318 79.2498L13.4555 85.9505C8.7259 83.2535 4.10013 79.0426 1.52819 72.471C1.31451 71.811 1.14604 71.207 1.06092 70.7438ZM194.036 34.5522L186.86 38.206C186.871 38.3687 186.813 38.5254 186.708 38.6782C186.897 41.2942 188.241 60.1796 188.116 65.6667C188.092 66.76 188.048 67.8528 187.984 68.9439C187.001 76.9595 183.614 82.6406 179.416 86.6581L172.088 81.9789C172.096 81.9712 172.102 81.9634 172.108 81.9557L171.298 81.4082C177.342 73.945 177.147 70.8407 177.147 62.1607V62.1585C177.122 61.6437 177.092 61.1294 177.056 60.6152C176.992 59.7236 176.427 52.0907 175.95 45.3579C175.689 41.6564 175.468 37.1972 175.308 33.4914L175.231 32.2736C175.178 31.0812 175.135 29.8224 175.11 28.5752C175.051 26.9867 175.019 25.9995 175.019 25.9995L175.094 25.9914C175.096 25.6023 175.097 25.2069 175.105 24.8345C175.259 18.0857 175.954 14.8365 176.82 12.7157C179.163 6.97579 185.437 2.04442 191.358 0L195.315 7.08684C195.315 7.08684 189.309 9.95507 187.189 15.0955C185.903 18.2152 186.061 22.5721 186.239 27.9601L193.402 25.6002L194.036 34.5522ZM162.132 64.165C162.859 66.7661 163.881 67.962 163.881 67.962L157.632 74.349C155.241 73.2634 153.058 71.2752 151.897 70.1885H151.897C151.897 70.1885 150.912 71.0635 150.69 71.2225C146.747 74.0359 141.908 75.6933 136.622 75.6933C123.025 75.6933 111.961 64.7452 111.961 51.2874C111.961 37.8303 123.025 26.8817 136.622 26.8817C142.798 26.8817 148.36 29.1461 152.598 32.872C155.302 31.3805 158.232 29.896 161.215 28.9212V51.7165C161.215 54.9706 161.299 61.1843 162.132 64.165H162.132ZM136.947 64.0209C144.297 64.0209 151.166 59.7169 151.166 51.1106C151.166 42.5035 144.298 38.2003 136.947 38.2003C129.597 38.2003 123.617 43.9919 123.617 51.1106C123.617 58.229 129.596 64.0209 136.947 64.0209ZM74.1876 64.165C74.9147 66.7661 75.9367 67.962 75.9367 67.962L69.6874 74.349C67.2964 73.2634 65.1135 71.2752 63.9521 70.1885C63.9521 70.1885 62.9677 71.0635 62.7452 71.2225C58.8027 74.0359 53.9637 75.6933 48.6778 75.6933C35.08 75.6933 24.0169 64.7452 24.0169 51.2874C24.0169 37.8303 35.08 26.8817 48.6778 26.8817C54.853 26.8817 60.4157 29.1461 64.6537 32.872C67.3578 31.3805 70.2872 29.896 73.2696 28.9212V51.7165C73.2696 54.9706 73.3543 61.1843 74.1876 64.165ZM48.5012 64.0209C55.3804 64.0209 61.8084 59.7169 61.8084 51.1106C61.8084 42.5035 55.3804 38.2003 48.5012 38.2003C41.6221 38.2003 36.0255 43.9919 36.0255 51.1106C36.0255 58.229 41.6221 64.0209 48.5012 64.0209Z" fill="white"/>
</g>
<defs>
<clipPath id="clip0_2500_352">
<rect width="249" height="87" fill="white"/>
</clipPath>
</defs>
</svg>
