<svg width="360" height="156" viewBox="0 0 360 156" fill="none" xmlns="http://www.w3.org/2000/svg">
<path d="M138.65 25.8877C137.333 26.138 136.298 27.1187 135.925 28.4714L135.834 28.796L135.824 44.0816C135.814 59.6105 135.817 59.9622 135.939 61.024C136.362 64.7339 137.824 68.1259 140.264 71.0511C140.772 71.663 142.048 72.9412 142.654 73.4518C146.282 76.5025 150.763 78.0814 155.48 77.9733C158.896 77.8922 162.013 76.9894 164.957 75.2174C166.294 74.4159 167.438 73.5161 168.599 72.3564C169.6 71.3519 170.281 70.5202 171.035 69.3769C172.585 67.0231 173.59 64.3888 173.99 61.6329C174.241 59.8979 174.241 57.8014 173.99 56.0531C173.472 52.4647 171.898 49.0322 169.485 46.229C167.235 43.6149 164.229 41.6771 160.909 40.6998C157.789 39.7799 154.509 39.7055 151.358 40.48C148.279 41.2409 145.598 42.7051 143.212 44.9336L142.738 45.3766L142.721 37.0542C142.705 29.4555 142.698 28.7081 142.647 28.5052C142.315 27.1931 141.442 26.2597 140.257 25.9486C139.838 25.8403 139.063 25.8099 138.65 25.8877ZM155.734 46.7022C156.628 46.753 157.305 46.8547 158.138 47.0607C162.219 48.0786 165.482 51.1697 166.731 55.1973C166.988 56.0294 167.147 56.8542 167.228 57.7911C167.279 58.3797 167.251 59.8673 167.177 60.4323C167.055 61.3692 166.808 62.3465 166.473 63.2325C166.267 63.7768 165.742 64.8352 165.431 65.3291C163.844 67.8587 161.295 69.7557 158.381 70.5775C155.972 71.2605 153.223 71.1692 150.912 70.3306C149.155 69.6949 147.626 68.7244 146.326 67.4191C145.28 66.3672 144.444 65.1632 143.855 63.8544C143.046 62.0488 142.701 60.2362 142.793 58.2681C142.857 56.8508 143.104 55.701 143.625 54.3789C145.375 49.9523 149.49 46.9797 154.262 46.7056C154.932 46.6651 155.098 46.6651 155.734 46.7022Z" fill="white"/>
<path d="M221.829 25.8844C221.084 26.0265 220.526 26.3207 220.011 26.8415C219.568 27.2879 219.253 27.8391 219.08 28.4647L218.989 28.7961L218.979 44.1153C218.972 54.9405 218.979 59.6072 219.006 60.0265C219.169 62.6203 219.812 65.0215 220.959 67.3141C221.118 67.6287 221.287 67.9566 221.335 68.0415C221.985 69.1844 222.658 70.1583 223.467 71.1188C223.944 71.6834 225.311 73.0464 225.86 73.4994C227.975 75.2546 230.347 76.5125 232.947 77.2602C236.128 78.1729 239.742 78.2203 242.951 77.392C245.53 76.7258 248.014 75.4911 250.085 73.851C251.341 72.8534 252.579 71.5856 253.527 70.3242C255.01 68.3522 256.191 65.8704 256.79 63.4589C257.449 60.8009 257.511 57.7136 256.959 54.9879C256.407 52.2588 255.195 49.5702 253.493 47.2944C252.932 46.5437 252.458 46.0024 251.72 45.2621C250.224 43.7671 248.677 42.6647 246.809 41.7618C241.032 38.9786 234.246 39.4216 228.889 42.9318C228.019 43.5 227.2 44.1528 226.31 44.988L225.876 45.3905V37.2133C225.876 28.3971 225.883 28.7657 225.704 28.184C225.619 27.9067 225.389 27.4401 225.22 27.2067C225.044 26.9632 224.638 26.5608 224.408 26.4052C224.123 26.2091 223.7 26.0197 223.368 25.9352C223.003 25.8439 222.181 25.8168 221.829 25.8844ZM238.889 46.7027C241.519 46.8548 243.882 47.7443 245.895 49.3435C246.443 49.7766 247.32 50.6488 247.747 51.1832C249.209 53.0194 250.062 55.0655 250.353 57.4395C250.41 57.9334 250.413 59.7494 250.353 60.2294C249.997 63.087 248.833 65.5016 246.86 67.4662C243.81 70.5099 239.36 71.7174 235.133 70.6586C234.006 70.3746 232.656 69.7928 231.613 69.137C228.75 67.3412 226.709 64.3247 226.117 61.0206C225.937 60.0097 225.876 58.6164 225.975 57.6761C226.374 53.855 228.411 50.5643 231.657 48.5187C232.151 48.2075 233.17 47.6999 233.735 47.487C234.903 47.044 236.138 46.7803 237.394 46.7057C238.044 46.6652 238.25 46.6652 238.889 46.7027Z" fill="white"/>
<path d="M263.942 25.8877C262.469 26.165 261.356 27.3655 261.143 28.8975C261.116 29.0936 261.109 33.4933 261.116 44.6564C261.129 61.741 261.113 60.3478 261.332 61.7849C261.854 65.1971 263.343 68.4335 265.624 71.1389C266.094 71.6935 267.36 72.9583 267.912 73.4216C270.639 75.7245 273.943 77.2363 277.388 77.7603C278.495 77.9292 279.009 77.9633 280.332 77.9633C281.659 77.9633 282.174 77.9292 283.277 77.7603C286.797 77.2225 290.113 75.684 292.889 73.3031C293.403 72.8635 294.506 71.7508 294.953 71.2199C296.418 69.4819 297.569 67.4932 298.358 65.3359C299.295 62.7658 299.644 60.0026 299.4 57.1183C299.197 54.724 298.584 52.5495 297.474 50.3039C295.146 45.5795 291.115 42.1471 286.201 40.6997C283.081 39.7799 279.801 39.7055 276.654 40.48C275.269 40.8215 274.126 41.2442 272.826 41.8969C271.212 42.7051 269.865 43.6622 268.352 45.0757L268.013 45.3903V37.1963C268.013 28.1298 268.027 28.6979 267.793 28.0487C267.421 27.0003 266.585 26.2191 265.549 25.9486C265.129 25.8403 264.355 25.8099 263.942 25.8877ZM281.026 46.7025C282.813 46.8038 284.377 47.2162 285.92 47.991C288.069 49.0662 289.846 50.7637 291.031 52.8774C291.779 54.2099 292.256 55.6673 292.472 57.2704C292.557 57.9026 292.557 59.7897 292.472 60.412C292.158 62.7115 291.298 64.7373 289.894 66.4856C288.77 67.8789 287.406 68.9609 285.731 69.7827C284.177 70.5438 282.698 70.926 280.945 71.017C277.875 71.176 274.914 70.1986 272.481 68.2171C271.993 67.8181 271.181 66.9963 270.765 66.4787C269.127 64.4395 268.193 61.981 268.084 59.4247C268.006 57.6255 268.274 55.9987 268.91 54.3892C270.69 49.8846 274.914 46.8917 279.774 46.6922C280.309 46.6685 280.475 46.6719 281.026 46.7025Z" fill="white"/>
<path d="M61.7488 26.111C59.3051 26.209 56.7467 26.4728 54.3875 26.8718C53.6533 26.9936 51.6766 27.3859 51.6498 27.4095C51.6261 27.4366 51.636 27.44 52.3129 27.6057C58.4454 29.1275 63.8234 32.0527 67.8239 36.0499C71.0083 39.2288 73.1338 42.854 74.2845 47.0611L74.4471 47.6596L75.1373 47.9199C76.5825 48.4642 77.5168 48.8736 79.0094 49.6105C81.8997 51.0412 84.7694 52.8335 87.8257 55.1162L88.4517 55.5829L95.2779 53.317L102.108 51.0511V46.8715C102.108 44.5754 102.118 41.8665 102.132 40.852L102.152 39.0089L101.631 38.5998C95.5659 33.8382 88.2827 30.2975 80.1601 28.1569C75.706 26.9834 71.0661 26.297 66.3176 26.1076C65.3462 26.0704 62.7473 26.0704 61.7488 26.111Z" fill="white"/>
<path d="M306.984 39.6381C306.662 39.6719 306.209 39.797 305.901 39.9357C304.977 40.355 304.236 41.2647 303.978 42.2996L303.907 42.5938L303.894 50.5578C303.884 58.6233 303.89 59.3572 304.009 60.4052C304.341 63.4119 305.393 66.2996 307.086 68.8529C308.199 70.537 309.597 72.0453 311.197 73.3002C316.02 77.0739 322.474 78.2439 328.17 76.3741C330.587 75.5794 332.841 74.2332 334.675 72.4918L335.024 72.1604L335.034 79.2924C335.044 86.3943 335.044 86.421 335.115 86.7257C335.366 87.8009 336.049 88.6701 336.994 89.1062C337.488 89.3363 337.792 89.3971 338.476 89.3971C338.983 89.3936 339.112 89.3837 339.369 89.3161C340.53 89.0148 341.478 88.156 341.847 87.0704C342.043 86.499 342.029 88.1288 342.029 64.5414C342.029 41.4676 342.036 42.5633 341.881 42.0696C341.596 41.1497 340.953 40.4125 340.049 39.9729C339.643 39.7734 339.329 39.6821 338.865 39.6347C338.1 39.5502 337.254 39.7599 336.591 40.1961C336.276 40.4057 335.816 40.8725 335.596 41.2038C335.373 41.5454 335.216 41.9106 335.115 42.357C335.044 42.6614 335.044 42.6918 335.024 51.1159L335.003 59.57L334.929 60.0436C334.563 62.272 333.697 64.1557 332.218 65.9277C331.897 66.3134 331.071 67.1352 330.675 67.47C328.793 69.046 326.658 69.9759 324.278 70.2599C323.3 70.375 321.889 70.3241 320.843 70.1345C317.898 69.6036 315.154 67.8824 313.272 65.3765C312.152 63.8919 311.363 62.0454 311.082 60.2634C310.947 59.4076 310.947 59.5127 310.927 50.8789L310.91 42.4923L310.835 42.2319C310.652 41.5927 310.372 41.1058 309.932 40.6628C309.343 40.0744 308.625 39.7294 307.803 39.6381C307.444 39.5975 307.377 39.5975 306.984 39.6381Z" fill="white"/>
<path d="M195.129 39.7058C193.223 39.8512 191.375 40.2705 189.663 40.9536C187.629 41.7652 185.926 42.7831 184.248 44.1966C183.69 44.6633 182.461 45.8945 181.98 46.4659C179.567 49.3304 178.048 52.7425 177.584 56.3439C177.469 57.2368 177.432 57.8453 177.432 58.877C177.435 60.4969 177.587 61.8392 177.939 63.307C178.637 66.2189 179.993 68.8799 181.974 71.2204C182.4 71.7241 183.612 72.9381 184.129 73.3811C185.815 74.8217 187.547 75.8736 189.582 76.692C191.382 77.419 193.304 77.8486 195.362 77.987C196.117 78.0378 197.84 78.0076 198.547 77.9331C200.97 77.6793 203.035 77.0772 205.197 76.0021C207.096 75.0553 208.714 73.8952 210.206 72.4037C211.655 70.9532 212.782 69.4009 213.706 67.5681C214.866 65.2717 215.449 63.2631 215.713 60.6692C215.794 59.8543 215.794 57.8522 215.713 57.0506C215.466 54.6395 214.954 52.7796 213.953 50.6421C212.321 47.1692 209.719 44.2914 206.443 42.3469C203.84 40.8014 201.038 39.9256 197.989 39.7024C197.454 39.6618 195.667 39.6652 195.129 39.7058ZM197.312 46.7025C198.476 46.7736 199.44 46.9529 200.479 47.2946C204.717 48.6878 207.888 52.34 208.649 56.7059C208.792 57.5105 208.825 58.0552 208.809 59.0967C208.788 60.287 208.714 60.8787 208.457 61.9034C207.722 64.8489 205.766 67.5307 203.123 69.2113C199.857 71.2915 195.636 71.6599 192.015 70.1822C188.248 68.6502 185.378 65.1738 184.607 61.2135C184.431 60.3245 184.404 59.9828 184.404 58.8429C184.404 57.707 184.427 57.4126 184.607 56.5064C185.145 53.7402 186.739 51.136 188.993 49.3368C190.831 47.8725 193.149 46.9395 195.45 46.7365C196.259 46.6689 196.611 46.662 197.312 46.7025Z" fill="white"/>
<path d="M23.1504 58.4033V69.2251H31.5031C36.8133 69.2251 40.0522 69.2113 40.394 69.191C43.7039 68.9782 46.32 67.906 48.2796 65.9616C48.7974 65.4475 49.0681 65.1161 49.4846 64.4938C50.2361 63.3678 50.7366 62.015 50.9703 60.4766C51.1665 59.1713 51.1531 57.3988 50.9362 56.1207C50.6284 54.3081 49.9209 52.7085 48.8788 51.4708C47.112 49.3674 44.4924 48.0586 41.3416 47.7036C40.3568 47.5919 39.6833 47.582 31.4354 47.582H23.1504V58.4033Z" fill="white"/>
<path d="M71.2358 67.429C70.7926 68.0785 69.9803 69.0726 69.2831 69.8164C67.0899 72.1569 64.0879 74.1586 60.9135 75.3967C60.7307 75.4673 60.5884 75.532 60.5953 75.5384C60.6022 75.5453 60.8932 75.6264 61.245 75.7177C67.8988 77.4389 73.4359 81.2269 76.9858 86.4753C78.0184 88.0004 79.0471 90.0327 79.6598 91.7474C80.472 94.0301 80.9053 96.1606 81.061 98.6122C81.1114 99.4409 81.0812 101.706 81.0101 102.501C80.6479 106.373 79.7408 109.627 78.1163 112.883C76.4073 116.302 74.0619 119.312 71.1004 121.889C66.7584 125.663 61.3399 128.273 55.1328 129.589C54.5641 129.708 54.3985 129.755 54.4727 129.768C54.6792 129.812 56.321 130.032 57.0449 130.113C59.6951 130.407 61.7188 130.516 64.5755 130.516C66.5959 130.516 67.5064 130.488 69.1103 130.38C79.2368 129.708 88.4119 126.867 95.201 122.308C98.6294 120.005 101.456 117.246 103.527 114.172C105.513 111.223 106.833 108.003 107.503 104.456C108.042 101.612 108.139 98.4093 107.774 95.5008C107.067 89.8469 104.63 84.8855 100.501 80.6925C100.112 80.2965 99.577 79.7759 99.3162 79.5393C93.2109 73.966 84.0729 69.891 72.214 67.4493L71.344 67.27L71.2358 67.429Z" fill="white"/>
<path d="M172.962 75.6875C171.97 75.772 171.009 76.3637 170.403 77.2631C170.061 77.7707 169.882 78.2913 169.828 78.9644C169.777 79.6069 169.807 107.418 169.861 107.98C170.102 110.489 170.593 112.366 171.544 114.422C172.559 116.61 173.916 118.483 175.774 120.259C178.438 122.802 182.056 124.581 185.782 125.176C187.792 125.494 190.097 125.514 192.083 125.223C195.6 124.712 198.592 123.326 201.15 121.016C201.807 120.425 202.217 119.823 202.484 119.072C203.046 117.472 202.589 115.91 201.306 115.051C200.761 114.686 200.226 114.53 199.546 114.534C198.602 114.537 197.871 114.868 196.873 115.754C195.184 117.252 193.261 118.111 190.933 118.409C188.96 118.663 186.97 118.497 185.227 117.936C183.345 117.33 181.765 116.363 180.37 114.963C178.691 113.272 177.578 111.172 177.142 108.876C176.948 107.851 176.959 108.328 176.948 100.753L176.935 93.7762L183.663 93.7697L190.391 93.7594L190.716 93.668C191.383 93.4853 191.88 93.188 192.365 92.6773C192.781 92.2412 193.031 91.7879 193.167 91.2367C193.245 90.929 193.268 90.2628 193.221 89.9176C193.021 88.5584 192.04 87.4324 190.696 87.023L190.391 86.9282L183.666 86.9183L176.938 86.9114V83.0122C176.938 80.5977 176.925 79.0015 176.904 78.8123C176.745 77.4053 175.815 76.3029 174.414 75.853C173.913 75.694 173.486 75.6436 172.962 75.6875Z" fill="white"/>
<path d="M146.156 87.0843C142.505 87.2601 139.212 89.2351 137.354 92.3633C136.528 93.7531 136.078 95.0786 135.878 96.6852C135.814 97.2092 135.824 98.7175 135.898 99.2721C136.183 101.443 136.998 103.388 138.308 105.021C138.697 105.505 139.594 106.401 140.064 106.776C141.506 107.922 143.104 108.673 144.789 108.991C145.662 109.157 145.872 109.163 150.11 109.163C152.668 109.163 154.211 109.177 154.452 109.201C155.491 109.302 156.435 109.624 157.274 110.168C158.083 110.695 158.604 111.456 158.835 112.444C158.922 112.819 158.957 113.665 158.902 114.084C158.73 115.393 158.09 116.394 156.922 117.192C156.377 117.564 155.714 117.821 154.888 117.983C154.648 118.03 153.646 118.037 146.156 118.054L137.695 118.074L137.425 118.152C136.724 118.349 136.115 118.778 135.716 119.359C135.032 120.354 134.958 122.061 135.546 123.232C136.014 124.158 136.822 124.77 137.78 124.922C138.088 124.97 155.149 124.97 155.684 124.922C157.606 124.747 159.359 124.124 160.929 123.059C161.623 122.589 162.107 122.17 162.832 121.415C164.541 119.634 165.569 117.317 165.803 114.72C165.857 114.118 165.83 112.596 165.756 112.055C165.512 110.337 164.94 108.748 164.036 107.307C163.613 106.627 163.102 105.995 162.435 105.326C160.97 103.854 159.021 102.813 156.953 102.403C156.002 102.214 156.208 102.221 151.081 102.197C145.896 102.174 146.197 102.184 145.578 101.978C144.62 101.656 143.649 100.841 143.215 99.9957C142.762 99.1062 142.66 97.8789 142.958 96.908C143.337 95.6841 144.39 94.5986 145.581 94.206C146.136 94.0203 145.591 94.0336 153.67 94.0134L161.116 93.9966L161.386 93.9186C162.564 93.5872 163.502 92.5861 163.793 91.345C163.921 90.7938 163.915 90.0026 163.769 89.4346C163.613 88.8158 163.217 88.2069 162.713 87.8078C162.168 87.3752 161.535 87.1416 160.743 87.0808C160.256 87.0438 146.948 87.0438 146.156 87.0843Z" fill="white"/>
<path d="M223.829 87.0877C219.473 87.2295 215.341 88.8192 212.001 91.6427C211.114 92.39 209.94 93.6108 209.235 94.5106C207.997 96.0999 206.941 98.0749 206.315 99.9685C205.496 102.434 205.239 105.143 205.57 107.777C205.946 110.783 207.134 113.712 208.979 116.184C209.51 116.894 209.963 117.412 210.732 118.18C212.014 119.465 213.192 120.388 214.607 121.226C217.666 123.035 221.006 123.942 224.601 123.942C227.802 123.942 230.686 123.262 233.532 121.842C237.032 120.093 239.919 117.3 241.679 113.966C242.812 111.818 243.428 109.827 243.699 107.439C243.773 106.776 243.801 104.984 243.75 104.24C243.598 102.096 243.117 100.168 242.237 98.2167C240.233 93.7599 236.615 90.3172 232.003 88.474C229.38 87.4256 226.797 86.9895 223.829 87.0877ZM225.386 93.8444C228.929 94.0642 232.036 95.6233 234.25 98.2878C235.187 99.4173 235.983 100.929 236.402 102.377C237.374 105.741 236.707 109.461 234.629 112.268C233.681 113.55 232.442 114.682 231.106 115.491C230.594 115.802 229.603 116.282 229.072 116.478C226.452 117.452 223.406 117.523 220.783 116.681C219.267 116.194 217.852 115.42 216.658 114.419C216.143 113.99 215.321 113.151 214.932 112.664C213.699 111.118 212.901 109.387 212.563 107.541C212.431 106.807 212.393 106.36 212.393 105.494C212.397 104.216 212.542 103.272 212.921 102.096C214.59 96.9183 219.761 93.4928 225.386 93.8444Z" fill="white"/>
<path d="M267.691 87.0704C265.406 87.1247 263.169 87.5608 261.129 88.352C257.896 89.6069 255.07 91.619 252.918 94.199C250.542 97.0432 248.958 100.526 248.42 104.091C248.183 105.663 248.173 106.062 248.186 114.591L248.197 121.997L248.288 122.325C248.467 122.978 248.793 123.509 249.307 123.999C250.048 124.703 250.846 124.99 251.933 124.946C252.485 124.926 252.806 124.848 253.239 124.638C253.608 124.463 253.886 124.256 254.177 123.945C254.461 123.647 254.576 123.475 254.763 123.09C254.938 122.721 255.037 122.362 255.084 121.913C255.104 121.71 255.118 118.774 255.118 114.016C255.118 106.424 255.125 106.083 255.24 105.274C255.558 103.066 256.502 100.868 257.903 99.0691C260.046 96.3197 263.196 94.5067 266.608 94.0637C266.831 94.0335 267.434 93.996 267.945 93.9792C268.923 93.9491 269.231 93.9081 269.667 93.7595C270.673 93.4181 271.505 92.5791 271.813 91.5953C272.074 90.77 272.006 89.6879 271.654 88.9204C271.238 88.0206 270.48 87.4255 269.447 87.1786C269.18 87.1178 268.405 87.0398 268.165 87.0536C268.111 87.0571 267.898 87.0635 267.691 87.0704Z" fill="white"/>
<path d="M291.415 87.0841C288.62 87.1854 286.027 87.8615 283.445 89.1604C281.1 90.3437 279.011 92.0145 277.275 94.0942C274.944 96.891 273.451 100.384 273.041 104.006C272.94 104.899 272.909 105.582 272.93 106.644C272.953 107.98 273.055 108.94 273.295 110.11C273.928 113.194 275.292 116.015 277.336 118.48C277.796 119.035 279.232 120.469 279.79 120.932C282.717 123.363 286.257 124.889 289.96 125.308C290.847 125.409 291.564 125.44 292.701 125.42C293.852 125.399 294.262 125.372 295.308 125.257C299.261 124.824 302.289 123.505 303.312 121.774C303.599 121.29 303.728 120.8 303.725 120.188C303.725 119.583 303.609 119.126 303.305 118.514C302.858 117.618 302.056 116.958 301.105 116.698C300.699 116.586 299.941 116.586 299.508 116.701C299.074 116.813 298.628 117.002 298.12 117.293C296.367 118.284 295.135 118.629 292.966 118.737C291.094 118.828 289.439 118.572 287.831 117.932C285.743 117.107 283.983 115.714 282.551 113.752C281.993 112.985 281.54 112.149 281.164 111.199C280.978 110.729 280.694 109.809 280.65 109.535L280.626 109.4L293.703 109.39L306.78 109.383L307.109 109.306C308.182 109.059 308.97 108.622 309.681 107.885C310.896 106.62 311.427 104.676 311.096 102.721C310.923 101.7 310.452 100.127 309.996 99.0349C307.904 94.03 304.131 90.3304 299.098 88.3554C297.216 87.6181 295.088 87.1651 293.172 87.0975C292.894 87.0871 292.539 87.0738 292.38 87.0703C292.221 87.0634 291.788 87.0703 291.415 87.0841ZM293.473 93.7594C297.21 94.1214 300.503 96.0558 302.51 99.0621C303.004 99.8029 303.261 100.374 303.4 101.013C303.474 101.365 303.484 102.001 303.416 102.264C303.261 102.904 302.855 103.306 302.178 103.505C301.985 103.563 301.399 103.567 291.206 103.577C281.242 103.583 280.433 103.58 280.433 103.529C280.433 103.499 280.474 103.296 280.521 103.08C281.452 98.9302 284.403 95.6262 288.339 94.3312C289.3 94.0166 290.346 93.8068 291.365 93.7326C291.795 93.6986 293.026 93.7154 293.473 93.7594Z" fill="white"/>
<path d="M23.1504 100.32V112.342H33.2495C39.7069 112.342 43.5651 112.329 43.9509 112.308C47.3354 112.115 50.0735 110.986 52.2292 108.899C53.7554 107.418 54.7505 105.724 55.2653 103.718C55.8538 101.426 55.793 98.5682 55.1161 96.3295C54.913 95.6667 54.7742 95.318 54.4392 94.6384C53.8675 93.4784 53.1971 92.5686 52.2598 91.6762C50.3206 89.8227 47.9208 88.7544 44.9356 88.4161C44.0152 88.3114 42.7021 88.2976 32.9584 88.2976H23.1504V100.32Z" fill="white"/>
</svg>
