<svg width="360" height="437" viewBox="0 0 360 437" fill="none" xmlns="http://www.w3.org/2000/svg">
<path fill-rule="evenodd" clip-rule="evenodd" d="M133.513 81.4354C93.5028 92.1561 69.7591 133.281 80.4798 173.291L138.714 390.625L226.041 426.754L283.603 351.802L225.369 134.468C214.648 94.4585 173.523 70.7148 133.513 81.4354ZM136.6 124.191C144.602 126.335 152.827 121.587 154.971 113.585C157.115 105.583 152.367 97.3577 144.365 95.2136C136.363 93.0694 128.138 97.8182 125.993 105.82C123.849 113.822 128.598 122.047 136.6 124.191Z" fill="#FF0000"/>
<path fill-rule="evenodd" clip-rule="evenodd" d="M126.096 105.437C148.121 108.302 169.406 94.4884 175.311 72.4474C181.744 48.4415 167.498 23.7663 143.492 17.3339C126.446 12.7666 109.063 18.6249 98.1133 31L91.6794 31C103.548 15.0125 124.385 7.03779 144.786 12.5043C171.459 19.6514 187.288 47.0682 180.141 73.7415C173.59 98.1899 150.01 113.528 125.582 110.413L125.347 108.235L126.096 105.437ZM104.563 96.6025C93.4949 88.1617 86.8192 74.8955 86.8337 60.7831L81.8324 60.7828C81.8172 76.1229 88.9163 90.5631 100.74 99.9635L102.587 98.5132L104.563 96.6025ZM83.0797 49.7538C82.8539 50.7472 82.6596 51.741 82.496 52.734L83.0797 49.7538Z" fill="white"/>
<path fill-rule="evenodd" clip-rule="evenodd" d="M126.096 105.437C148.121 108.302 169.406 94.4884 175.311 72.4474C181.744 48.4415 167.498 23.7663 143.492 17.3339C126.446 12.7666 109.063 18.6249 98.1133 31L91.6794 31C103.548 15.0125 124.385 7.03779 144.786 12.5043C171.459 19.6514 187.288 47.0682 180.141 73.7415C173.59 98.1899 150.01 113.528 125.582 110.413L125.347 108.235L126.096 105.437ZM104.563 96.6025C93.4949 88.1617 86.8192 74.8955 86.8337 60.7831L81.8324 60.7828C81.8172 76.1229 88.9163 90.5631 100.74 99.9635L102.587 98.5132L104.563 96.6025ZM83.0797 49.7538C82.8539 50.7472 82.6596 51.741 82.496 52.734L83.0797 49.7538Z" fill="white"/>
<path fill-rule="evenodd" clip-rule="evenodd" d="M126.096 105.437C148.121 108.302 169.406 94.4884 175.311 72.4474C181.744 48.4415 167.498 23.7663 143.492 17.3339C126.446 12.7666 109.063 18.6249 98.1133 31L91.6794 31C103.548 15.0125 124.385 7.03779 144.786 12.5043C171.459 19.6514 187.288 47.0682 180.141 73.7415C173.59 98.1899 150.01 113.528 125.582 110.413L125.347 108.235L126.096 105.437ZM104.563 96.6025C93.4949 88.1617 86.8192 74.8955 86.8337 60.7831L81.8324 60.7828C81.8172 76.1229 88.9163 90.5631 100.74 99.9635L102.587 98.5132L104.563 96.6025ZM83.0797 49.7538C82.8539 50.7472 82.6596 51.741 82.496 52.734L83.0797 49.7538Z" fill="white"/>
<path fill-rule="evenodd" clip-rule="evenodd" d="M126.096 105.437C148.121 108.302 169.406 94.4884 175.311 72.4474C181.744 48.4415 167.498 23.7663 143.492 17.3339C126.446 12.7666 109.063 18.6249 98.1133 31L91.6794 31C103.548 15.0125 124.385 7.03779 144.786 12.5043C171.459 19.6514 187.288 47.0682 180.141 73.7415C173.59 98.1899 150.01 113.528 125.582 110.413L125.347 108.235L126.096 105.437ZM104.563 96.6025C93.4949 88.1617 86.8192 74.8955 86.8337 60.7831L81.8324 60.7828C81.8172 76.1229 88.9163 90.5631 100.74 99.9635L102.587 98.5132L104.563 96.6025ZM83.0797 49.7538C82.8539 50.7472 82.6596 51.741 82.496 52.734L83.0797 49.7538Z" fill="white"/>
<path d="M181.79 168.841L190.25 166.568L194.796 183.488L186.336 185.761L181.79 168.841ZM177.851 206.44C177.093 203.62 176.683 200.707 176.621 197.7C176.569 194.732 176.9 192.033 177.615 189.605L187.369 191.457C186.724 193.371 186.376 195.39 186.326 197.516C186.286 199.68 186.52 201.709 187.029 203.602C187.558 205.572 188.345 207.038 189.391 208C190.436 208.961 191.635 209.26 192.987 208.897C194.184 208.576 195.001 207.838 195.437 206.686C195.911 205.523 195.853 203.84 195.261 201.639L193.969 196.829L201.212 194.883L215.902 202.617L212.257 204.776L206.684 184.032L215.55 181.65L223.427 210.97L216.242 212.901L201.552 205.167L203.229 198.69L204.07 201.819C205.429 206.88 205.317 211.01 203.733 214.211C202.199 217.44 199.654 219.532 196.1 220.486C193.782 221.109 191.428 221.058 189.039 220.333C186.659 219.647 184.465 218.186 182.456 215.951C180.486 213.705 178.951 210.535 177.851 206.44ZM188.398 245.7C187.464 242.224 187.465 238.91 188.399 235.76C189.344 232.648 191.174 229.899 193.888 227.513C196.601 225.128 200.199 223.333 204.68 222.129C209.161 220.925 213.174 220.675 216.718 221.38C220.262 222.084 223.223 223.546 225.6 225.766C227.988 228.023 229.648 230.891 230.582 234.367C231.506 237.805 231.495 241.08 230.55 244.192C229.616 247.343 227.792 250.111 225.078 252.496C222.364 254.882 218.766 256.677 214.285 257.881C209.804 259.085 205.791 259.335 202.247 258.63C198.703 257.925 195.737 256.444 193.35 254.186C190.972 251.967 189.322 249.138 188.398 245.7ZM197.785 243.178C198.118 244.415 198.794 245.393 199.816 246.112C200.848 246.87 202.287 247.291 204.132 247.376C206.015 247.449 208.367 247.108 211.187 246.35C214.046 245.582 216.252 244.699 217.807 243.702C219.361 242.704 220.395 241.619 220.908 240.446C221.432 239.311 221.527 238.125 221.195 236.889C220.863 235.653 220.181 234.656 219.149 233.898C218.127 233.178 216.689 232.757 214.833 232.634C212.988 232.55 210.637 232.892 207.778 233.66C204.958 234.418 202.751 235.3 201.158 236.308C199.614 237.344 198.581 238.43 198.057 239.564C197.544 240.738 197.453 241.942 197.785 243.178ZM196.66 273.213L244.662 290.014L246.904 298.358L198.901 281.557L196.66 273.213ZM216.256 271.925C215.727 269.955 215.694 268.058 216.157 266.236C216.62 264.413 217.563 262.835 218.985 261.5C220.446 260.155 222.355 259.166 224.711 258.532C227.068 257.899 229.196 257.804 231.096 258.246C232.995 258.688 234.602 259.582 235.916 260.927C237.269 262.262 238.21 263.914 238.739 265.885C239.279 267.893 239.293 269.795 238.781 271.589C238.318 273.412 237.375 274.99 235.953 276.325C234.541 277.699 232.656 278.702 230.3 279.335C227.982 279.958 225.849 280.034 223.9 279.563C221.961 279.131 220.335 278.243 219.021 276.898C217.718 275.591 216.796 273.934 216.256 271.925ZM221.777 270.504C222.036 271.47 222.693 272.142 223.748 272.522C224.813 272.94 226.369 272.874 228.416 272.323C230.464 271.773 231.843 271.051 232.555 270.155C233.278 269.299 233.509 268.387 233.25 267.421C232.99 266.456 232.323 265.745 231.248 265.288C230.183 264.87 228.627 264.936 226.579 265.486C224.532 266.036 223.152 266.759 222.44 267.654C221.738 268.588 221.517 269.538 221.777 270.504ZM204.825 305.687C204.285 303.678 204.247 301.763 204.71 299.94C205.183 298.156 206.131 296.597 207.553 295.262C209.014 293.917 210.923 292.928 213.279 292.295C215.636 291.662 217.764 291.566 219.664 292.008C221.564 292.451 223.165 293.325 224.469 294.632C225.822 295.966 226.768 297.638 227.307 299.647C227.847 301.656 227.861 303.557 227.349 305.351C226.886 307.174 225.943 308.753 224.521 310.087C223.109 311.461 221.225 312.464 218.868 313.097C216.512 313.73 214.359 313.811 212.41 313.341C210.51 312.899 208.904 312.005 207.59 310.66C206.286 309.353 205.364 307.696 204.825 305.687ZM210.329 304.208C210.589 305.174 211.251 305.866 212.316 306.284C213.381 306.702 214.937 306.636 216.984 306.086C219.032 305.536 220.412 304.813 221.124 303.917C221.836 303.022 222.062 302.091 221.803 301.126C221.554 300.199 220.891 299.507 219.816 299.05C218.751 298.632 217.195 298.698 215.148 299.248C213.1 299.798 211.72 300.521 211.008 301.416C210.307 302.35 210.08 303.281 210.329 304.208Z" fill="white"/>
<path d="M137.751 190.369C137.128 188.051 137.034 185.853 137.47 183.776C137.913 181.724 138.807 179.965 140.153 178.499C141.525 177.026 143.266 176.006 145.378 175.439C147.49 174.871 149.495 174.885 151.395 175.479C153.294 176.073 154.936 177.151 156.322 178.711C157.74 180.291 158.761 182.239 159.383 184.557C160.02 186.926 160.068 189.109 159.527 191.104C158.986 193.099 157.898 194.703 156.264 195.916L151.841 191.015C152.688 190.263 153.234 189.468 153.478 188.629C153.747 187.783 153.768 186.935 153.54 186.086C153.312 185.236 152.911 184.515 152.338 183.923C151.765 183.332 151.049 182.93 150.192 182.719C149.367 182.526 148.427 182.572 147.371 182.856C146.289 183.146 145.427 183.585 144.784 184.172C144.147 184.785 143.73 185.491 143.53 186.29C143.331 187.089 143.345 187.913 143.573 188.763C143.802 189.613 144.232 190.34 144.863 190.943C145.52 191.54 146.404 191.951 147.514 192.178L146.143 198.635C144.12 198.405 142.375 197.562 140.907 196.106C139.439 194.651 138.387 192.738 137.751 190.369ZM145.503 217.837L153.564 208.837L158.628 213.814L147.827 226.49L145.503 217.837ZM141.559 203.157L162.497 197.532L164.468 204.872L143.531 210.497L141.559 203.157ZM150.405 206.331L156.161 204.785L158.195 212.356L152.439 213.902L150.405 206.331ZM155.233 215.513L154.081 208.45L166.554 212.637L168.641 220.402L155.233 215.513ZM148.481 228.923L169.419 223.299L171.38 230.6L160.409 233.547L173.736 239.369L175.552 246.129L154.615 251.754L152.643 244.414L163.652 241.456L150.308 235.722L148.481 228.923ZM163.049 270.353L174.947 267.156L173.442 261.555L171.413 262.017C170.395 262.235 169.424 262.427 168.502 262.592C167.613 262.776 166.78 262.861 166.003 262.849C165.227 262.837 164.529 262.707 163.91 262.459C163.317 262.204 162.818 261.786 162.414 261.204L161.449 253.759C161.636 254.455 161.981 254.969 162.485 255.303C163.022 255.656 163.685 255.865 164.476 255.928C165.266 255.992 166.138 255.951 167.093 255.805C168.081 255.678 169.109 255.498 170.179 255.266L177.553 253.575L182.752 272.929L165.021 277.692L163.049 270.353ZM151.064 255.804L161.262 253.064L168.465 279.873L158.266 282.613L156.44 275.814L160.766 274.652L157.227 261.479L152.901 262.641L151.064 255.804ZM167.384 299.285L175.445 290.285L180.51 295.262L169.709 307.938L167.384 299.285ZM163.44 284.605L184.378 278.98L186.35 286.32L165.412 291.945L163.44 284.605ZM172.287 287.779L178.043 286.232L180.077 293.804L174.321 295.35L172.287 287.779ZM177.114 296.961L175.962 289.898L188.436 294.085L190.522 301.849L177.114 296.961ZM173.593 322.394L177.494 321.346L178.325 320.585L185.51 318.654C186.669 318.343 187.461 317.744 187.885 316.856C188.342 315.988 188.363 314.781 187.948 313.236C187.678 312.232 187.238 311.26 186.626 310.319C186.04 309.372 185.367 308.614 184.607 308.045L188.926 304.234C190.017 305.211 190.99 306.469 191.845 308.006C192.732 309.562 193.397 311.165 193.84 312.813C194.753 316.212 194.674 319.05 193.601 321.327C192.561 323.622 190.379 325.216 187.057 326.108L175.43 329.232L173.593 322.394ZM171.584 316.307C171.135 314.633 171.037 313.14 171.293 311.829C171.548 310.518 172.082 309.422 172.894 308.541C173.714 307.686 174.729 307.096 175.939 306.771C177.227 306.425 178.421 306.449 179.521 306.844C180.654 307.257 181.648 308.081 182.504 309.314C183.386 310.541 184.117 312.236 184.699 314.399L186.027 319.344L182.203 320.371L181.144 316.431C180.826 315.246 180.408 314.461 179.89 314.076C179.379 313.716 178.802 313.622 178.158 313.795C177.514 313.968 177.065 314.351 176.81 314.945C176.555 315.538 176.542 316.259 176.77 317.109C176.985 317.907 177.371 318.577 177.931 319.117C178.523 319.676 179.272 319.999 180.179 320.086L177.745 321.817C176.199 321.818 174.901 321.353 173.849 320.42C172.831 319.507 172.076 318.135 171.584 316.307Z" fill="white"/>
<path d="M102.077 197.2L113.975 194.003L112.47 188.401L110.44 188.864C109.422 189.082 108.452 189.274 107.53 189.439C106.64 189.622 105.807 189.708 105.031 189.696C104.254 189.684 103.557 189.554 102.938 189.306C102.345 189.051 101.846 188.633 101.441 188.051L100.476 180.606C100.663 181.302 101.008 181.816 101.512 182.151C102.049 182.503 102.712 182.712 103.503 182.775C104.293 182.839 105.165 182.798 106.12 182.652C107.108 182.525 108.136 182.345 109.206 182.113L116.58 180.421L121.78 199.775L104.049 204.539L102.077 197.2ZM90.0909 182.651L100.289 179.911L107.493 206.72L97.2944 209.46L95.4676 202.662L99.7941 201.499L96.2547 188.326L91.9281 189.489L90.0909 182.651ZM104.892 221.86C104.276 219.568 104.193 217.409 104.643 215.383C105.093 213.357 105.99 211.611 107.336 210.144C108.714 208.697 110.459 207.69 112.571 207.122C114.683 206.555 116.685 206.556 118.577 207.124C120.476 207.718 122.115 208.783 123.494 210.317C124.899 211.845 125.909 213.755 126.525 216.047C127.141 218.339 127.224 220.498 126.774 222.524C126.357 224.569 125.473 226.312 124.12 227.752C122.767 229.193 121.035 230.196 118.923 230.764C116.812 231.331 114.797 231.334 112.879 230.773C110.986 230.204 109.334 229.143 107.923 227.59C106.518 226.062 105.508 224.152 104.892 221.86ZM110.725 220.293C110.954 221.142 111.348 221.837 111.907 222.377C112.473 222.943 113.181 223.319 114.032 223.504C114.909 223.683 115.875 223.631 116.931 223.347C117.986 223.063 118.823 222.631 119.44 222.051C120.083 221.464 120.508 220.784 120.714 220.011C120.928 219.263 120.92 218.464 120.692 217.615C120.47 216.79 120.077 216.096 119.51 215.53C118.951 214.99 118.243 214.614 117.385 214.403C116.56 214.21 115.62 214.256 114.564 214.539C113.508 214.823 112.646 215.262 111.977 215.856C111.341 216.469 110.916 217.149 110.703 217.896C110.496 218.67 110.504 219.468 110.725 220.293ZM112.009 246.958L116.799 245.671L128.983 253.249C129.846 253.79 130.58 254.159 131.185 254.355C131.797 254.577 132.323 254.685 132.763 254.677C133.235 254.688 133.652 254.645 134.012 254.548C134.888 254.313 135.491 253.833 135.821 253.11C136.158 252.412 136.171 251.483 135.859 250.324C135.596 249.346 135.132 248.49 134.466 247.758C133.8 247.026 132.956 246.507 131.935 246.201L133.577 239.672C135.546 240.219 137.302 241.308 138.845 242.936C140.387 244.565 141.514 246.706 142.227 249.359C142.787 251.445 142.944 253.363 142.696 255.114C142.449 256.865 141.825 258.344 140.824 259.552C139.83 260.786 138.496 261.627 136.822 262.077C135.946 262.312 135.04 262.432 134.102 262.435C133.19 262.432 132.154 262.227 130.996 261.82C129.87 261.432 128.542 260.754 127.011 259.784L117.435 253.742L119.797 251.741L123.731 266.382L117.666 268.011L112.009 246.958ZM120.93 282.319C120.308 280.002 120.308 277.793 120.931 275.692C121.561 273.618 122.78 271.785 124.59 270.195C126.399 268.604 128.797 267.407 131.784 266.605C134.772 265.802 137.447 265.635 139.81 266.105C142.172 266.575 144.146 267.549 145.731 269.029C147.323 270.534 148.43 272.445 149.053 274.763C149.669 277.055 149.662 279.238 149.032 281.313C148.409 283.413 147.193 285.259 145.384 286.849C143.574 288.44 141.176 289.636 138.189 290.439C135.201 291.242 132.526 291.408 130.163 290.939C127.801 290.469 125.823 289.482 124.232 287.977C122.647 286.497 121.546 284.611 120.93 282.319ZM127.189 280.638C127.41 281.462 127.861 282.114 128.542 282.594C129.23 283.099 130.189 283.38 131.42 283.436C132.675 283.485 134.243 283.257 136.123 282.752C138.029 282.24 139.5 281.651 140.536 280.986C141.572 280.321 142.262 279.598 142.604 278.815C142.953 278.059 143.016 277.269 142.795 276.444C142.574 275.62 142.119 274.956 141.431 274.45C140.75 273.971 139.791 273.69 138.554 273.608C137.324 273.552 135.756 273.78 133.85 274.292C131.97 274.797 130.499 275.386 129.437 276.058C128.408 276.748 127.718 277.472 127.369 278.228C127.027 279.011 126.967 279.814 127.189 280.638ZM125.991 300.381C125.659 299.145 125.79 297.991 126.386 296.92C126.982 295.849 127.911 295.143 129.173 294.804C130.486 294.451 131.643 294.596 132.644 295.238C133.671 295.874 134.35 296.809 134.682 298.046C135.015 299.282 134.896 300.432 134.326 301.496C133.781 302.554 132.853 303.259 131.539 303.612C130.277 303.951 129.12 303.806 128.068 303.178C127.015 302.549 126.323 301.617 125.991 300.381ZM130.692 318.648C130.069 316.33 130.069 314.121 130.692 312.021C131.322 309.946 132.542 308.114 134.351 306.523C136.16 304.933 138.558 303.736 141.546 302.933C144.533 302.131 147.208 301.964 149.571 302.434C151.934 302.903 153.908 303.878 155.493 305.357C157.084 306.862 158.192 308.774 158.814 311.092C159.43 313.384 159.423 315.567 158.793 317.641C158.17 319.742 156.954 321.587 155.145 323.178C153.336 324.768 150.937 325.965 147.95 326.768C144.963 327.57 142.288 327.737 139.925 327.267C137.562 326.798 135.585 325.81 133.993 324.305C132.408 322.826 131.308 320.94 130.692 318.648ZM136.95 316.967C137.171 317.791 137.623 318.443 138.304 318.922C138.992 319.428 139.951 319.708 141.181 319.764C142.437 319.814 144.005 319.586 145.885 319.08C147.79 318.568 149.261 317.98 150.298 317.315C151.334 316.65 152.023 315.926 152.365 315.144C152.714 314.387 152.778 313.597 152.556 312.773C152.335 311.949 151.88 311.284 151.192 310.779C150.511 310.299 149.552 310.018 148.315 309.937C147.085 309.88 145.517 310.108 143.611 310.621C141.731 311.126 140.26 311.714 139.198 312.386C138.169 313.077 137.48 313.801 137.131 314.557C136.789 315.339 136.728 316.142 136.95 316.967ZM136.211 337.03L163.266 341.068L160.571 343.987L156.886 330.274L161.242 332.458L153.555 334.524L151.801 327.995L162.037 325.245L168.058 347.65L163.268 348.937L138.453 345.374L136.211 337.03Z" fill="white"/>
</svg>
